<svg xmlns="http://www.w3.org/2000/svg" xmlns:xlink="http://www.w3.org/1999/xlink" width="930" zoomAndPan="magnify" viewBox="0 0 697.5 202.499994" height="270" preserveAspectRatio="xMidYMid meet" version="1.0"><defs><g/><clipPath id="9c4c379930"><path d="M 0.609375 0 L 696.390625 0 L 696.390625 202 L 0.609375 202 Z M 0.609375 0 " clip-rule="nonzero"/></clipPath><clipPath id="c563eee95f"><path d="M 20.808594 55 L 167.453125 55 L 167.453125 170.371094 L 20.808594 170.371094 Z M 20.808594 55 " clip-rule="nonzero"/></clipPath><clipPath id="32b8743b2d"><path d="M 26 20.199219 L 140 20.199219 L 140 53 L 26 53 Z M 26 20.199219 " clip-rule="nonzero"/></clipPath><clipPath id="3f4beb5ba4"><path d="M 34 66.292969 L 135 66.292969 L 135 143 L 34 143 Z M 34 66.292969 " clip-rule="nonzero"/></clipPath><clipPath id="595d983c5e"><path d="M 20.808594 132 L 51 132 L 51 161.570312 L 20.808594 161.570312 Z M 20.808594 132 " clip-rule="nonzero"/></clipPath><clipPath id="10a6cfe330"><path d="M 123 66.292969 L 145.101562 66.292969 L 145.101562 86 L 123 86 Z M 123 66.292969 " clip-rule="nonzero"/></clipPath></defs><g clip-path="url(#9c4c379930)"><path fill="#ffffff" d="M 0.609375 0 L 696.390625 0 L 696.390625 202 L 0.609375 202 Z M 0.609375 0 " fill-opacity="1" fill-rule="nonzero"/><path fill="#ffffff" d="M 0.609375 0 L 696.390625 0 L 696.390625 202 L 0.609375 202 Z M 0.609375 0 " fill-opacity="1" fill-rule="nonzero"/></g><g clip-path="url(#c563eee95f)"><path fill="#3b82f6" d="M 146.488281 55.152344 L 41.757812 55.152344 C 28.78125 55.152344 20.808594 67.351562 20.808594 76.097656 L 20.808594 150.75 C 20.808594 161.558594 29.605469 170.355469 40.414062 170.355469 L 147.828125 170.355469 C 158.636719 170.355469 167.433594 161.558594 167.433594 150.75 L 167.433594 75.558594 C 167.433594 64.878906 157.453125 55.152344 146.488281 55.152344 Z M 141.257812 121.480469 C 136.4375 121.480469 132.523438 117.578125 132.523438 112.757812 C 132.523438 107.9375 136.4375 104.027344 141.257812 104.027344 C 146.066406 104.027344 149.980469 107.9375 149.980469 112.757812 C 149.980469 117.578125 146.066406 121.480469 141.257812 121.480469 Z M 141.257812 121.480469 " fill-opacity="1" fill-rule="nonzero"/></g><g clip-path="url(#32b8743b2d)"><path fill="#3b82f6" d="M 41.757812 48.167969 L 139.503906 48.167969 L 139.503906 36.5 C 139.503906 30.851562 139.503906 20.335938 128.089844 20.335938 C 125.503906 20.335938 122.355469 20.847656 118.1875 21.949219 C 107.679688 24.714844 46.144531 41.777344 45.226562 42.046875 C 36.085938 45.488281 30.300781 48.878906 26.679688 52.855469 C 30.925781 49.976562 36.03125 48.167969 41.757812 48.167969 Z M 41.757812 48.167969 " fill-opacity="1" fill-rule="nonzero"/></g><g clip-path="url(#3f4beb5ba4)"><path fill="#ffffff" d="M 134.117188 82.144531 C 133.871094 82.652344 133.507812 83.414062 133.019531 84.402344 C 132.039062 86.375 130.578125 89.277344 128.535156 92.910156 C 126.488281 96.539062 123.863281 100.902344 120.457031 105.671875 C 118.757812 108.054688 116.847656 110.527344 114.710938 113.027344 C 112.566406 115.515625 110.1875 118.03125 107.523438 120.441406 C 104.859375 122.847656 101.90625 125.148438 98.644531 127.140625 C 95.382812 129.132812 91.804688 130.804688 87.96875 131.929688 C 84.136719 133.050781 80.050781 133.621094 75.84375 133.484375 C 75.582031 133.472656 75.320312 133.464844 75.054688 133.453125 L 74.660156 133.4375 L 74.261719 133.40625 C 73.738281 133.359375 73.199219 133.335938 72.683594 133.265625 C 72.164062 133.203125 71.640625 133.152344 71.125 133.054688 C 70.867188 133.015625 70.605469 132.972656 70.347656 132.929688 C 70.085938 132.886719 69.832031 132.824219 69.574219 132.773438 C 67.507812 132.351562 65.464844 131.730469 63.488281 130.914062 C 61.746094 130.183594 60.058594 129.285156 58.460938 128.246094 C 58.25 128.109375 58.042969 127.972656 57.839844 127.832031 C 57.382812 127.539062 56.964844 127.195312 56.527344 126.878906 L 56.363281 126.757812 L 55.894531 126.371094 C 55.683594 126.199219 55.472656 126.03125 55.265625 125.855469 C 55.066406 125.671875 54.863281 125.492188 54.664062 125.3125 L 54.359375 125.039062 L 54.070312 124.753906 C 53.964844 124.648438 53.859375 124.546875 53.753906 124.441406 C 53.664062 124.355469 53.578125 124.269531 53.488281 124.183594 C 53.296875 123.992188 53.117188 123.785156 52.933594 123.589844 C 52.554688 123.199219 52.210938 122.777344 51.859375 122.363281 C 51.675781 122.160156 51.519531 121.9375 51.351562 121.722656 C 51.1875 121.503906 51.019531 121.292969 50.859375 121.074219 C 50.703125 120.851562 50.546875 120.625 50.394531 120.402344 L 50.160156 120.066406 L 49.945312 119.71875 C 49.800781 119.488281 49.65625 119.257812 49.507812 119.027344 C 49.371094 118.792969 49.242188 118.550781 49.109375 118.316406 C 48.828125 117.847656 48.605469 117.347656 48.355469 116.859375 C 48.289062 116.742188 48.238281 116.613281 48.183594 116.488281 L 47.855469 115.738281 C 47.796875 115.613281 47.742188 115.488281 47.699219 115.359375 C 47.507812 114.84375 47.292969 114.339844 47.140625 113.808594 C 47.054688 113.546875 46.964844 113.289062 46.886719 113.023438 C 46.816406 112.757812 46.742188 112.492188 46.671875 112.226562 C 46.101562 110.09375 45.839844 107.863281 45.824219 105.601562 L 45.816406 105.175781 C 45.816406 105.035156 45.828125 104.894531 45.832031 104.753906 C 45.839844 104.46875 45.851562 104.183594 45.863281 103.902344 C 45.863281 103.757812 45.875 103.617188 45.890625 103.476562 L 45.929688 103.050781 C 45.957031 102.769531 45.96875 102.484375 46.007812 102.203125 C 46.046875 101.921875 46.089844 101.640625 46.128906 101.359375 C 46.148438 101.214844 46.164062 101.074219 46.1875 100.933594 L 46.269531 100.515625 C 46.320312 100.234375 46.375 99.957031 46.425781 99.675781 C 46.492188 99.398438 46.558594 99.121094 46.628906 98.84375 C 47.15625 96.621094 48.015625 94.472656 49.101562 92.429688 C 49.664062 91.421875 50.261719 90.421875 50.953125 89.484375 C 51.277344 89 51.65625 88.554688 52.011719 88.089844 C 52.191406 87.859375 52.394531 87.648438 52.582031 87.425781 C 52.773438 87.203125 52.960938 86.976562 53.167969 86.769531 L 53.773438 86.132812 C 53.980469 85.921875 54.195312 85.726562 54.40625 85.523438 L 54.722656 85.21875 C 54.828125 85.117188 54.941406 85.027344 55.050781 84.929688 L 55.710938 84.355469 C 55.9375 84.171875 56.167969 83.996094 56.394531 83.8125 L 56.734375 83.542969 C 56.851562 83.453125 56.972656 83.371094 57.089844 83.285156 L 57.796875 82.777344 L 58.527344 82.304688 L 58.890625 82.066406 C 59.011719 81.992188 59.136719 81.921875 59.261719 81.851562 L 60.011719 81.414062 L 60.777344 81.015625 L 61.160156 80.8125 C 61.289062 80.75 61.421875 80.691406 61.550781 80.632812 L 62.332031 80.269531 C 62.59375 80.15625 62.863281 80.058594 63.128906 79.945312 C 63.652344 79.714844 64.203125 79.554688 64.738281 79.359375 C 66.910156 78.652344 69.15625 78.230469 71.414062 78.066406 C 73.675781 77.917969 75.9375 78.042969 78.128906 78.429688 C 80.324219 78.816406 82.449219 79.464844 84.460938 80.351562 C 84.71875 80.449219 84.960938 80.578125 85.207031 80.699219 C 85.457031 80.816406 85.703125 80.9375 85.949219 81.058594 C 86.195312 81.175781 86.429688 81.320312 86.667969 81.449219 C 86.910156 81.582031 87.148438 81.714844 87.386719 81.847656 C 87.617188 81.992188 87.847656 82.136719 88.078125 82.285156 L 88.425781 82.5 C 88.542969 82.570312 88.65625 82.644531 88.765625 82.726562 C 88.988281 82.882812 89.210938 83.039062 89.433594 83.195312 C 89.65625 83.351562 89.882812 83.503906 90.089844 83.675781 L 90.25 83.804688 C 90.289062 83.835938 90.273438 83.824219 90.277344 83.824219 L 90.285156 83.824219 C 90.292969 83.828125 90.296875 83.824219 90.308594 83.828125 C 90.339844 83.84375 90.367188 83.859375 90.394531 83.878906 C 90.453125 83.914062 90.519531 83.949219 90.582031 83.996094 C 90.648438 84.039062 90.714844 84.085938 90.78125 84.140625 C 90.8125 84.167969 90.851562 84.195312 90.882812 84.222656 L 90.832031 84.304688 C 90.765625 84.417969 90.683594 84.546875 90.585938 84.6875 L 90.515625 84.796875 L 90.503906 84.808594 C 90.496094 84.816406 90.507812 84.808594 90.472656 84.847656 L 90.308594 85.019531 L 89.988281 85.355469 C 89.5625 85.808594 89.136719 86.257812 88.710938 86.707031 C 76.039062 100.105469 64.691406 112.402344 55.0625 123 L 55.433594 123.359375 L 55.695312 123.617188 L 55.960938 123.855469 L 56.558594 124.394531 C 56.664062 124.484375 56.773438 124.570312 56.878906 124.660156 C 56.96875 124.730469 57.054688 124.800781 57.140625 124.871094 L 57.566406 125.222656 L 57.679688 125.304688 C 57.832031 125.417969 57.984375 125.53125 58.136719 125.644531 C 58.402344 125.84375 58.652344 126.035156 58.890625 126.1875 L 58.941406 126.222656 C 59.132812 126.355469 59.328125 126.484375 59.523438 126.609375 L 59.941406 126.882812 C 73.355469 114.511719 104.707031 84.632812 105.0625 84.242188 C 105.109375 84.21875 105.042969 84.1875 105.03125 84.164062 L 104.960938 84.078125 L 104.820312 83.917969 L 104.542969 83.585938 L 103.984375 82.929688 C 103.238281 82.054688 102.492188 81.179688 101.742188 80.300781 L 101.179688 79.644531 C 101.085938 79.535156 101 79.421875 100.894531 79.316406 L 100.585938 79 C 100.167969 78.570312 99.75 78.144531 99.335938 77.71875 L 98.707031 77.074219 C 98.492188 76.863281 98.265625 76.660156 98.042969 76.449219 C 97.816406 76.242188 97.566406 76.039062 97.324219 75.832031 L 96.773438 75.359375 C 92.175781 71.484375 86.460938 68.675781 80.28125 67.386719 C 77.191406 66.746094 74 66.480469 70.796875 66.617188 C 67.589844 66.773438 64.363281 67.3125 61.230469 68.277344 C 60.457031 68.535156 59.667969 68.773438 58.910156 69.085938 C 58.527344 69.234375 58.140625 69.378906 57.761719 69.535156 C 57.382812 69.703125 57.007812 69.871094 56.628906 70.039062 C 56.441406 70.125 56.253906 70.207031 56.066406 70.296875 L 55.515625 70.574219 C 55.144531 70.761719 54.777344 70.945312 54.410156 71.136719 C 54.050781 71.34375 53.691406 71.546875 53.328125 71.753906 C 53.148438 71.855469 52.96875 71.957031 52.792969 72.0625 L 52.265625 72.394531 C 51.914062 72.621094 51.5625 72.84375 51.214844 73.070312 C 50.875 73.308594 50.535156 73.550781 50.195312 73.789062 C 50.027344 73.910156 49.855469 74.027344 49.6875 74.152344 L 49.195312 74.539062 C 48.867188 74.796875 48.535156 75.050781 48.214844 75.3125 L 47.265625 76.132812 C 47.105469 76.269531 46.945312 76.402344 46.792969 76.546875 L 46.335938 76.980469 C 46.035156 77.269531 45.726562 77.554688 45.433594 77.851562 L 44.5625 78.761719 C 44.269531 79.0625 43.996094 79.382812 43.722656 79.703125 C 43.449219 80.019531 43.167969 80.332031 42.90625 80.660156 C 42.390625 81.320312 41.863281 81.96875 41.390625 82.660156 C 40.410156 84.011719 39.554688 85.449219 38.765625 86.910156 C 37.222656 89.847656 36.035156 92.960938 35.320312 96.160156 C 35.230469 96.558594 35.140625 96.957031 35.054688 97.355469 C 34.984375 97.757812 34.914062 98.160156 34.847656 98.5625 L 34.746094 99.164062 C 34.714844 99.367188 34.695312 99.566406 34.667969 99.769531 C 34.621094 100.171875 34.570312 100.574219 34.523438 100.976562 C 34.480469 101.378906 34.460938 101.785156 34.433594 102.1875 L 34.390625 102.792969 C 34.378906 102.992188 34.367188 103.195312 34.363281 103.398438 C 34.359375 103.800781 34.351562 104.203125 34.34375 104.605469 C 34.34375 104.804688 34.335938 105.003906 34.339844 105.207031 L 34.359375 105.808594 C 34.457031 109.011719 34.925781 112.207031 35.835938 115.253906 C 35.953125 115.632812 36.070312 116.011719 36.183594 116.390625 C 36.308594 116.765625 36.449219 117.136719 36.582031 117.507812 C 36.835938 118.257812 37.15625 118.976562 37.460938 119.703125 C 37.53125 119.882812 37.617188 120.0625 37.703125 120.238281 L 37.957031 120.769531 L 38.210938 121.296875 C 38.292969 121.476562 38.378906 121.648438 38.476562 121.820312 C 38.851562 122.503906 39.207031 123.195312 39.625 123.851562 C 39.828125 124.183594 40.023438 124.515625 40.234375 124.839844 C 40.449219 125.160156 40.667969 125.476562 40.882812 125.796875 L 41.210938 126.273438 L 41.554688 126.730469 C 41.785156 127.039062 42.019531 127.34375 42.25 127.644531 C 42.484375 127.945312 42.734375 128.234375 42.976562 128.527344 C 43.222656 128.816406 43.460938 129.117188 43.722656 129.390625 C 44.234375 129.949219 44.738281 130.507812 45.28125 131.027344 C 45.550781 131.289062 45.8125 131.558594 46.089844 131.8125 C 46.273438 131.976562 46.460938 132.144531 46.644531 132.3125 C 46.738281 132.394531 46.828125 132.476562 46.921875 132.5625 L 47.339844 132.933594 L 47.769531 133.285156 C 48.058594 133.519531 48.34375 133.753906 48.632812 133.988281 C 48.921875 134.214844 49.222656 134.429688 49.515625 134.652344 L 49.957031 134.976562 L 50.179688 135.140625 L 50.410156 135.296875 C 50.457031 135.328125 50.503906 135.363281 50.554688 135.394531 C 51.113281 135.769531 51.664062 136.15625 52.242188 136.492188 C 54.71875 138.011719 57.3125 139.25 59.960938 140.179688 C 62.613281 141.109375 65.308594 141.753906 67.996094 142.132812 C 68.332031 142.175781 68.664062 142.230469 69 142.265625 C 69.335938 142.300781 69.671875 142.332031 70.007812 142.363281 C 70.675781 142.441406 71.34375 142.464844 72.007812 142.5 C 72.675781 142.546875 73.324219 142.535156 73.972656 142.546875 L 74.460938 142.550781 L 74.949219 142.539062 C 75.273438 142.53125 75.597656 142.523438 75.917969 142.511719 C 78.5 142.414062 81.042969 142.109375 83.492188 141.597656 C 85.945312 141.089844 88.3125 140.390625 90.558594 139.535156 C 95.054688 137.824219 99.058594 135.5 102.554688 132.914062 C 106.054688 130.324219 109.058594 127.476562 111.679688 124.59375 C 114.300781 121.710938 116.542969 118.785156 118.503906 115.933594 C 120.457031 113.078125 122.144531 110.300781 123.605469 107.652344 C 126.527344 102.359375 128.617188 97.617188 130.191406 93.703125 C 131.757812 89.789062 132.804688 86.695312 133.488281 84.589844 C 133.828125 83.539062 134.078125 82.734375 134.242188 82.191406 C 134.40625 81.648438 134.488281 81.371094 134.488281 81.371094 C 134.488281 81.371094 134.363281 81.632812 134.117188 82.144531 " fill-opacity="1" fill-rule="nonzero"/></g><g clip-path="url(#595d983c5e)"><path fill="#ffffff" d="M 50.179688 135.140625 L 49.957031 134.976562 L 49.515625 134.652344 C 49.222656 134.429688 48.921875 134.214844 48.632812 133.988281 C 48.34375 133.753906 48.058594 133.519531 47.769531 133.285156 L 47.339844 132.933594 L 46.921875 132.5625 C 46.828125 132.476562 46.738281 132.394531 46.644531 132.3125 C 30.359375 150.425781 20.8125 161.617188 20.8125 161.617188 C 20.8125 161.617188 32.1875 151.917969 50.554688 135.394531 C 50.503906 135.363281 50.457031 135.328125 50.410156 135.296875 L 50.179688 135.140625 " fill-opacity="1" fill-rule="nonzero"/></g><g clip-path="url(#10a6cfe330)"><path fill="#ffffff" d="M 140.300781 66.292969 L 123.753906 77.613281 L 135.714844 78.425781 L 145.222656 85.726562 L 140.300781 66.292969 " fill-opacity="1" fill-rule="nonzero"/></g><g fill="#3b82f6" fill-opacity="1"><g transform="translate(180.69565, 146.831377)"><g><path d="M 39.34375 -61.03125 L 39.34375 -48.8125 L 18.34375 -48.8125 L 18.34375 -36.6875 L 38.46875 -36.6875 L 38.46875 -24.484375 L 18.34375 -24.484375 L 18.34375 -12.203125 L 39.34375 -12.203125 L 39.34375 0 L 4.4375 0 L 4.4375 -61.03125 Z M 39.34375 -61.03125 "/></g></g></g><g fill="#3b82f6" fill-opacity="1"><g transform="translate(223.587245, 146.831377)"><g><path d="M 48.375 0 L 32.546875 0 L 24.1875 -10.71875 L 15.828125 0 L 0 0 L 16.203125 -19.828125 L 2.296875 -37.953125 L 17.609375 -37.953125 L 24.1875 -29.140625 L 30.765625 -37.953125 L 46.078125 -37.953125 L 32.171875 -19.828125 Z M 48.375 0 "/></g></g></g><g fill="#3b82f6" fill-opacity="1"><g transform="translate(271.951198, 146.831377)"><g><path d="M 43.484375 -33.25 C 47.035156 -29.375 48.8125 -24.625 48.8125 -19 C 48.8125 -13.382812 47.035156 -8.628906 43.484375 -4.734375 C 39.941406 -0.835938 35.429688 1.109375 29.953125 1.109375 C 24.921875 1.109375 20.78125 -0.46875 17.53125 -3.625 L 17.53125 19.234375 L 4.4375 19.234375 L 4.4375 -37.953125 L 17.375 -37.953125 L 17.375 -33.65625 L 17.53125 -33.65625 C 20.78125 -37.257812 24.921875 -39.0625 29.953125 -39.0625 C 35.429688 -39.0625 39.941406 -37.125 43.484375 -33.25 Z M 32.359375 -12.578125 C 34.054688 -14.253906 34.90625 -16.398438 34.90625 -19.015625 C 34.90625 -21.628906 34.09375 -23.757812 32.46875 -25.40625 C 30.84375 -27.0625 28.695312 -27.890625 26.03125 -27.890625 C 23.46875 -27.890625 21.359375 -27.050781 19.703125 -25.375 C 18.054688 -23.695312 17.234375 -21.578125 17.234375 -19.015625 C 17.234375 -16.398438 18.082031 -14.253906 19.78125 -12.578125 C 21.488281 -10.898438 23.570312 -10.0625 26.03125 -10.0625 C 28.550781 -10.0625 30.660156 -10.898438 32.359375 -12.578125 Z M 32.359375 -12.578125 "/></g></g></g><g fill="#3b82f6" fill-opacity="1"><g transform="translate(322.459733, 146.831377)"><g><path d="M 42.828125 -17.15625 L 15.3125 -17.15625 C 15.3125 -14.5 16.171875 -12.523438 17.890625 -11.234375 C 19.617188 -9.953125 21.492188 -9.3125 23.515625 -9.3125 C 25.640625 -9.3125 27.316406 -9.59375 28.546875 -10.15625 C 29.785156 -10.726562 31.191406 -11.851562 32.765625 -13.53125 L 42.234375 -8.796875 C 38.285156 -2.191406 31.726562 1.109375 22.5625 1.109375 C 16.84375 1.109375 11.9375 -0.847656 7.84375 -4.765625 C 3.75 -8.691406 1.703125 -13.414062 1.703125 -18.9375 C 1.703125 -24.457031 3.75 -29.191406 7.84375 -33.140625 C 11.9375 -37.085938 16.84375 -39.0625 22.5625 -39.0625 C 28.570312 -39.0625 33.460938 -37.320312 37.234375 -33.84375 C 41.015625 -30.363281 42.90625 -25.394531 42.90625 -18.9375 C 42.90625 -18.050781 42.878906 -17.457031 42.828125 -17.15625 Z M 15.6875 -24.40625 L 30.109375 -24.40625 C 29.804688 -26.382812 29.023438 -27.898438 27.765625 -28.953125 C 26.515625 -30.015625 24.90625 -30.546875 22.9375 -30.546875 C 20.757812 -30.546875 19.03125 -29.976562 17.75 -28.84375 C 16.46875 -27.707031 15.78125 -26.226562 15.6875 -24.40625 Z M 15.6875 -24.40625 "/></g></g></g><g fill="#3b82f6" fill-opacity="1"><g transform="translate(367.052187, 146.831377)"><g><path d="M 4.4375 0 L 4.4375 -37.953125 L 17.53125 -37.953125 L 17.53125 -33.953125 L 17.671875 -33.953125 C 21.078125 -37.359375 24.703125 -39.0625 28.546875 -39.0625 C 30.421875 -39.0625 32.28125 -38.8125 34.125 -38.3125 C 35.976562 -37.820312 37.753906 -37.054688 39.453125 -36.015625 C 41.160156 -34.984375 42.539062 -33.519531 43.59375 -31.625 C 44.65625 -29.726562 45.1875 -27.519531 45.1875 -25 L 45.1875 0 L 32.109375 0 L 32.109375 -21.453125 C 32.109375 -23.421875 31.476562 -25.144531 30.21875 -26.625 C 28.957031 -28.101562 27.316406 -28.84375 25.296875 -28.84375 C 23.328125 -28.84375 21.539062 -28.078125 19.9375 -26.546875 C 18.332031 -25.023438 17.53125 -23.328125 17.53125 -21.453125 L 17.53125 0 Z M 4.4375 0 "/></g></g></g><g fill="#3b82f6" fill-opacity="1"><g transform="translate(415.933806, 146.831377)"><g><path d="M 20.9375 -39.0625 C 23.101562 -39.0625 25.242188 -38.8125 27.359375 -38.3125 C 29.484375 -37.820312 31.066406 -37.332031 32.109375 -36.84375 L 33.65625 -36.09375 L 29.359375 -27.515625 C 26.398438 -29.097656 23.59375 -29.890625 20.9375 -29.890625 C 19.457031 -29.890625 18.40625 -29.726562 17.78125 -29.40625 C 17.164062 -29.082031 16.859375 -28.476562 16.859375 -27.59375 C 16.859375 -27.394531 16.882812 -27.195312 16.9375 -27 C 16.988281 -26.800781 17.085938 -26.613281 17.234375 -26.4375 C 17.378906 -26.269531 17.515625 -26.125 17.640625 -26 C 17.765625 -25.875 17.972656 -25.738281 18.265625 -25.59375 C 18.566406 -25.445312 18.800781 -25.335938 18.96875 -25.265625 C 19.144531 -25.191406 19.429688 -25.078125 19.828125 -24.921875 C 20.222656 -24.773438 20.515625 -24.664062 20.703125 -24.59375 C 20.898438 -24.519531 21.234375 -24.410156 21.703125 -24.265625 C 22.171875 -24.117188 22.53125 -24.019531 22.78125 -23.96875 C 24.3125 -23.519531 25.644531 -23.023438 26.78125 -22.484375 C 27.914062 -21.941406 29.109375 -21.203125 30.359375 -20.265625 C 31.617188 -19.328125 32.59375 -18.144531 33.28125 -16.71875 C 33.976562 -15.289062 34.328125 -13.660156 34.328125 -11.828125 C 34.328125 -3.203125 28.332031 1.109375 16.34375 1.109375 C 13.632812 1.109375 11.054688 0.691406 8.609375 -0.140625 C 6.171875 -0.984375 4.410156 -1.820312 3.328125 -2.65625 L 1.703125 -4 L 7.03125 -12.9375 C 7.425781 -12.59375 7.941406 -12.1875 8.578125 -11.71875 C 9.222656 -11.25 10.382812 -10.609375 12.0625 -9.796875 C 13.738281 -8.984375 15.191406 -8.578125 16.421875 -8.578125 C 19.128906 -8.578125 20.484375 -9.488281 20.484375 -11.3125 C 20.484375 -12.15625 20.140625 -12.8125 19.453125 -13.28125 C 18.765625 -13.75 17.59375 -14.273438 15.9375 -14.859375 C 14.289062 -15.453125 13 -16 12.0625 -16.5 C 9.6875 -17.726562 7.804688 -19.117188 6.421875 -20.671875 C 5.046875 -22.222656 4.359375 -24.28125 4.359375 -26.84375 C 4.359375 -30.695312 5.847656 -33.695312 8.828125 -35.84375 C 11.816406 -37.988281 15.851562 -39.0625 20.9375 -39.0625 Z M 20.9375 -39.0625 "/></g></g></g><g fill="#3b82f6" fill-opacity="1"><g transform="translate(452.317713, 146.831377)"><g><path d="M 42.828125 -17.15625 L 15.3125 -17.15625 C 15.3125 -14.5 16.171875 -12.523438 17.890625 -11.234375 C 19.617188 -9.953125 21.492188 -9.3125 23.515625 -9.3125 C 25.640625 -9.3125 27.316406 -9.59375 28.546875 -10.15625 C 29.785156 -10.726562 31.191406 -11.851562 32.765625 -13.53125 L 42.234375 -8.796875 C 38.285156 -2.191406 31.726562 1.109375 22.5625 1.109375 C 16.84375 1.109375 11.9375 -0.847656 7.84375 -4.765625 C 3.75 -8.691406 1.703125 -13.414062 1.703125 -18.9375 C 1.703125 -24.457031 3.75 -29.191406 7.84375 -33.140625 C 11.9375 -37.085938 16.84375 -39.0625 22.5625 -39.0625 C 28.570312 -39.0625 33.460938 -37.320312 37.234375 -33.84375 C 41.015625 -30.363281 42.90625 -25.394531 42.90625 -18.9375 C 42.90625 -18.050781 42.878906 -17.457031 42.828125 -17.15625 Z M 15.6875 -24.40625 L 30.109375 -24.40625 C 29.804688 -26.382812 29.023438 -27.898438 27.765625 -28.953125 C 26.515625 -30.015625 24.90625 -30.546875 22.9375 -30.546875 C 20.757812 -30.546875 19.03125 -29.976562 17.75 -28.84375 C 16.46875 -27.707031 15.78125 -26.226562 15.6875 -24.40625 Z M 15.6875 -24.40625 "/></g></g></g><g fill="#3b82f6" fill-opacity="1"><g transform="translate(496.910167, 146.831377)"><g><path d="M 39.34375 -61.03125 L 39.34375 -48.8125 L 18.34375 -48.8125 L 18.34375 -36.6875 L 38.46875 -36.6875 L 38.46875 -24.484375 L 18.34375 -24.484375 L 18.34375 -12.203125 L 39.34375 -12.203125 L 39.34375 0 L 4.4375 0 L 4.4375 -61.03125 Z M 39.34375 -61.03125 "/></g></g></g><g fill="#3b82f6" fill-opacity="1"><g transform="translate(539.801763, 146.831377)"><g><path d="M 7.03125 -4.6875 C 3.476562 -8.5625 1.703125 -13.3125 1.703125 -18.9375 C 1.703125 -24.5625 3.476562 -29.320312 7.03125 -33.21875 C 10.582031 -37.113281 15.09375 -39.0625 20.5625 -39.0625 C 25.59375 -39.0625 29.734375 -37.484375 32.984375 -34.328125 L 32.984375 -37.953125 L 46.078125 -37.953125 L 46.078125 0 L 33.140625 0 L 33.140625 -4.296875 L 32.984375 -4.296875 C 29.734375 -0.691406 25.59375 1.109375 20.5625 1.109375 C 15.09375 1.109375 10.582031 -0.820312 7.03125 -4.6875 Z M 18.15625 -25.375 C 16.457031 -23.695312 15.609375 -21.550781 15.609375 -18.9375 C 15.609375 -16.320312 16.421875 -14.1875 18.046875 -12.53125 C 19.671875 -10.882812 21.816406 -10.0625 24.484375 -10.0625 C 27.046875 -10.0625 29.148438 -10.898438 30.796875 -12.578125 C 32.453125 -14.253906 33.28125 -16.375 33.28125 -18.9375 C 33.28125 -21.550781 32.429688 -23.695312 30.734375 -25.375 C 29.035156 -27.050781 26.953125 -27.890625 24.484375 -27.890625 C 21.972656 -27.890625 19.863281 -27.050781 18.15625 -25.375 Z M 18.15625 -25.375 "/></g></g></g><g fill="#3b82f6" fill-opacity="1"><g transform="translate(590.310298, 146.831377)"><g><path d="M 20.9375 -39.0625 C 23.101562 -39.0625 25.242188 -38.8125 27.359375 -38.3125 C 29.484375 -37.820312 31.066406 -37.332031 32.109375 -36.84375 L 33.65625 -36.09375 L 29.359375 -27.515625 C 26.398438 -29.097656 23.59375 -29.890625 20.9375 -29.890625 C 19.457031 -29.890625 18.40625 -29.726562 17.78125 -29.40625 C 17.164062 -29.082031 16.859375 -28.476562 16.859375 -27.59375 C 16.859375 -27.394531 16.882812 -27.195312 16.9375 -27 C 16.988281 -26.800781 17.085938 -26.613281 17.234375 -26.4375 C 17.378906 -26.269531 17.515625 -26.125 17.640625 -26 C 17.765625 -25.875 17.972656 -25.738281 18.265625 -25.59375 C 18.566406 -25.445312 18.800781 -25.335938 18.96875 -25.265625 C 19.144531 -25.191406 19.429688 -25.078125 19.828125 -24.921875 C 20.222656 -24.773438 20.515625 -24.664062 20.703125 -24.59375 C 20.898438 -24.519531 21.234375 -24.410156 21.703125 -24.265625 C 22.171875 -24.117188 22.53125 -24.019531 22.78125 -23.96875 C 24.3125 -23.519531 25.644531 -23.023438 26.78125 -22.484375 C 27.914062 -21.941406 29.109375 -21.203125 30.359375 -20.265625 C 31.617188 -19.328125 32.59375 -18.144531 33.28125 -16.71875 C 33.976562 -15.289062 34.328125 -13.660156 34.328125 -11.828125 C 34.328125 -3.203125 28.332031 1.109375 16.34375 1.109375 C 13.632812 1.109375 11.054688 0.691406 8.609375 -0.140625 C 6.171875 -0.984375 4.410156 -1.820312 3.328125 -2.65625 L 1.703125 -4 L 7.03125 -12.9375 C 7.425781 -12.59375 7.941406 -12.1875 8.578125 -11.71875 C 9.222656 -11.25 10.382812 -10.609375 12.0625 -9.796875 C 13.738281 -8.984375 15.191406 -8.578125 16.421875 -8.578125 C 19.128906 -8.578125 20.484375 -9.488281 20.484375 -11.3125 C 20.484375 -12.15625 20.140625 -12.8125 19.453125 -13.28125 C 18.765625 -13.75 17.59375 -14.273438 15.9375 -14.859375 C 14.289062 -15.453125 13 -16 12.0625 -16.5 C 9.6875 -17.726562 7.804688 -19.117188 6.421875 -20.671875 C 5.046875 -22.222656 4.359375 -24.28125 4.359375 -26.84375 C 4.359375 -30.695312 5.847656 -33.695312 8.828125 -35.84375 C 11.816406 -37.988281 15.851562 -39.0625 20.9375 -39.0625 Z M 20.9375 -39.0625 "/></g></g></g><g fill="#3b82f6" fill-opacity="1"><g transform="translate(626.694181, 146.831377)"><g><path d="M 42.828125 -17.15625 L 15.3125 -17.15625 C 15.3125 -14.5 16.171875 -12.523438 17.890625 -11.234375 C 19.617188 -9.953125 21.492188 -9.3125 23.515625 -9.3125 C 25.640625 -9.3125 27.316406 -9.59375 28.546875 -10.15625 C 29.785156 -10.726562 31.191406 -11.851562 32.765625 -13.53125 L 42.234375 -8.796875 C 38.285156 -2.191406 31.726562 1.109375 22.5625 1.109375 C 16.84375 1.109375 11.9375 -0.847656 7.84375 -4.765625 C 3.75 -8.691406 1.703125 -13.414062 1.703125 -18.9375 C 1.703125 -24.457031 3.75 -29.191406 7.84375 -33.140625 C 11.9375 -37.085938 16.84375 -39.0625 22.5625 -39.0625 C 28.570312 -39.0625 33.460938 -37.320312 37.234375 -33.84375 C 41.015625 -30.363281 42.90625 -25.394531 42.90625 -18.9375 C 42.90625 -18.050781 42.878906 -17.457031 42.828125 -17.15625 Z M 15.6875 -24.40625 L 30.109375 -24.40625 C 29.804688 -26.382812 29.023438 -27.898438 27.765625 -28.953125 C 26.515625 -30.015625 24.90625 -30.546875 22.9375 -30.546875 C 20.757812 -30.546875 19.03125 -29.976562 17.75 -28.84375 C 16.46875 -27.707031 15.78125 -26.226562 15.6875 -24.40625 Z M 15.6875 -24.40625 "/></g></g></g></svg>