<svg xmlns="http://www.w3.org/2000/svg" xmlns:xlink="http://www.w3.org/1999/xlink" width="500" zoomAndPan="magnify" viewBox="0 0 375 374.999991" height="500" preserveAspectRatio="xMidYMid meet" version="1.0"><defs><clipPath id="23b049f869"><path d="M 14.203125 92 L 360.703125 92 L 360.703125 364.738281 L 14.203125 364.738281 Z M 14.203125 92 " clip-rule="nonzero"/></clipPath><clipPath id="67111c3db2"><path d="M 14.203125 274 L 85 274 L 85 343.9375 L 14.203125 343.9375 Z M 14.203125 274 " clip-rule="nonzero"/></clipPath><clipPath id="c3235789f1"><path d="M 257 118.9375 L 308.203125 118.9375 L 308.203125 165 L 257 165 Z M 257 118.9375 " clip-rule="nonzero"/></clipPath></defs><rect x="-37.5" width="450" fill="#ffffff" y="-37.499999" height="449.999989" fill-opacity="1"/><rect x="-37.5" width="450" fill="#ffffff" y="-37.499999" height="449.999989" fill-opacity="1"/><g clip-path="url(#23b049f869)"><path fill="#3b82f6" d="M 311.28125 92.597656 L 63.714844 92.597656 C 33.042969 92.597656 14.203125 121.4375 14.203125 142.109375 L 14.203125 318.574219 C 14.203125 344.125 35 364.917969 60.546875 364.917969 L 314.453125 364.917969 C 340 364.917969 360.796875 344.125 360.796875 318.574219 L 360.796875 140.839844 C 360.796875 115.59375 337.203125 92.597656 311.28125 92.597656 Z M 298.921875 249.386719 C 287.523438 249.386719 278.273438 240.164062 278.273438 228.765625 C 278.273438 217.371094 287.523438 208.128906 298.921875 208.128906 C 310.285156 208.128906 319.535156 217.371094 319.535156 228.765625 C 319.535156 240.164062 310.285156 249.386719 298.921875 249.386719 Z M 298.921875 249.386719 " fill-opacity="1" fill-rule="nonzero"/></g><path fill="#3b82f6" d="M 63.714844 76.089844 L 294.777344 76.089844 L 294.777344 48.511719 C 294.777344 35.160156 294.777344 10.296875 267.792969 10.296875 C 261.679688 10.296875 254.234375 11.507812 244.382812 14.109375 C 219.550781 20.652344 74.089844 60.980469 71.917969 61.617188 C 50.316406 69.753906 36.640625 77.765625 28.074219 87.164062 C 38.117188 80.367188 50.183594 76.089844 63.714844 76.089844 Z M 63.714844 76.089844 " fill-opacity="1" fill-rule="nonzero"/><path fill="#ffffff" d="M 282.042969 156.40625 C 281.460938 157.609375 280.601562 159.40625 279.445312 161.738281 C 277.128906 166.410156 273.671875 173.269531 268.839844 181.855469 C 264.007812 190.425781 257.800781 200.746094 249.75 212.015625 C 245.734375 217.648438 241.21875 223.492188 236.167969 229.402344 C 231.097656 235.289062 225.472656 241.230469 219.175781 246.929688 C 212.878906 252.621094 205.902344 258.058594 198.1875 262.769531 C 190.476562 267.476562 182.019531 271.429688 172.957031 274.082031 C 163.898438 276.738281 154.242188 278.085938 144.296875 277.761719 C 143.675781 277.734375 143.054688 277.710938 142.433594 277.683594 L 141.496094 277.648438 L 140.558594 277.574219 C 139.3125 277.46875 138.039062 277.410156 136.824219 277.242188 C 135.597656 277.09375 134.363281 276.976562 133.140625 276.746094 C 132.53125 276.648438 131.917969 276.550781 131.300781 276.453125 C 130.6875 276.351562 130.082031 276.203125 129.46875 276.082031 C 124.589844 275.082031 119.761719 273.617188 115.09375 271.679688 C 110.96875 269.957031 106.984375 267.835938 103.203125 265.375 C 102.710938 265.054688 102.21875 264.730469 101.734375 264.394531 C 100.660156 263.703125 99.667969 262.898438 98.632812 262.144531 L 98.25 261.859375 L 97.136719 260.945312 C 96.644531 260.535156 96.136719 260.144531 95.65625 259.722656 C 95.179688 259.296875 94.703125 258.867188 94.226562 258.441406 L 93.511719 257.800781 L 92.824219 257.125 C 92.574219 256.878906 92.324219 256.632812 92.074219 256.390625 C 91.867188 256.183594 91.660156 255.984375 91.453125 255.777344 C 91 255.320312 90.578125 254.839844 90.136719 254.371094 C 89.242188 253.449219 88.433594 252.449219 87.601562 251.46875 C 87.171875 250.992188 86.800781 250.46875 86.40625 249.957031 C 86.019531 249.445312 85.613281 248.945312 85.234375 248.421875 C 84.871094 247.894531 84.503906 247.367188 84.136719 246.839844 L 83.585938 246.046875 L 83.074219 245.226562 C 82.734375 244.683594 82.390625 244.136719 82.046875 243.589844 C 81.722656 243.035156 81.417969 242.460938 81.097656 241.90625 C 80.4375 240.796875 79.910156 239.617188 79.320312 238.464844 C 79.167969 238.183594 79.039062 237.886719 78.910156 237.585938 L 78.523438 236.699219 L 78.132812 235.8125 C 78 235.519531 77.871094 235.21875 77.765625 234.914062 C 77.320312 233.699219 76.808594 232.503906 76.445312 231.253906 C 76.246094 230.636719 76.035156 230.019531 75.847656 229.398438 C 75.675781 228.773438 75.507812 228.140625 75.339844 227.511719 C 73.988281 222.472656 73.371094 217.203125 73.332031 211.855469 L 73.320312 210.847656 C 73.3125 210.515625 73.34375 210.179688 73.351562 209.847656 C 73.375 209.171875 73.402344 208.503906 73.425781 207.832031 C 73.429688 207.496094 73.460938 207.164062 73.492188 206.828125 L 73.585938 205.824219 C 73.652344 205.15625 73.679688 204.484375 73.773438 203.820312 C 73.867188 203.152344 73.960938 202.488281 74.054688 201.820312 C 74.101562 201.488281 74.136719 201.152344 74.195312 200.824219 L 74.386719 199.832031 C 74.511719 199.167969 74.632812 198.507812 74.757812 197.84375 C 74.917969 197.191406 75.074219 196.535156 75.234375 195.878906 C 76.488281 190.628906 78.519531 185.546875 81.085938 180.71875 C 82.414062 178.332031 83.820312 175.972656 85.457031 173.75 C 86.230469 172.613281 87.117188 171.554688 87.960938 170.460938 C 88.386719 169.917969 88.863281 169.414062 89.308594 168.886719 C 89.765625 168.363281 90.203125 167.828125 90.695312 167.339844 L 92.128906 165.832031 C 92.613281 165.339844 93.128906 164.878906 93.621094 164.394531 L 94.371094 163.675781 C 94.617188 163.433594 94.886719 163.222656 95.148438 162.992188 L 96.707031 161.632812 C 97.238281 161.195312 97.785156 160.777344 98.320312 160.351562 L 99.128906 159.707031 C 99.402344 159.5 99.6875 159.308594 99.964844 159.105469 L 101.632812 157.902344 L 103.359375 156.785156 L 104.21875 156.226562 C 104.507812 156.046875 104.808594 155.882812 105.101562 155.710938 L 106.867188 154.675781 L 108.679688 153.734375 L 109.582031 153.257812 C 109.886719 153.109375 110.199219 152.976562 110.507812 152.828125 L 112.355469 151.976562 C 112.980469 151.707031 113.613281 151.472656 114.238281 151.210938 C 115.480469 150.667969 116.777344 150.28125 118.042969 149.820312 C 123.175781 148.148438 128.484375 147.15625 133.820312 146.761719 C 139.167969 146.417969 144.515625 146.707031 149.699219 147.625 C 154.882812 148.542969 159.914062 150.074219 164.667969 152.167969 C 165.277344 152.402344 165.847656 152.707031 166.429688 152.988281 C 167.015625 153.269531 167.597656 153.554688 168.179688 153.835938 C 168.765625 154.117188 169.316406 154.460938 169.882812 154.765625 C 170.453125 155.078125 171.015625 155.390625 171.578125 155.703125 C 172.125 156.046875 172.671875 156.390625 173.21875 156.738281 L 174.035156 157.25 C 174.3125 157.417969 174.582031 157.585938 174.84375 157.777344 C 175.367188 158.148438 175.894531 158.519531 176.417969 158.890625 C 176.941406 159.257812 177.476562 159.617188 177.972656 160.03125 L 178.347656 160.328125 C 178.4375 160.398438 178.40625 160.371094 178.417969 160.378906 L 178.429688 160.378906 C 178.449219 160.382812 178.457031 160.378906 178.484375 160.386719 C 178.554688 160.421875 178.621094 160.464844 178.691406 160.503906 C 178.832031 160.589844 178.984375 160.675781 179.132812 160.78125 C 179.285156 160.886719 179.445312 160.996094 179.601562 161.125 C 179.679688 161.183594 179.769531 161.25 179.84375 161.320312 L 179.726562 161.511719 C 179.5625 161.78125 179.371094 162.082031 179.144531 162.414062 L 178.972656 162.671875 L 178.945312 162.707031 C 178.929688 162.722656 178.957031 162.703125 178.871094 162.792969 L 178.488281 163.199219 L 177.730469 164 C 176.71875 165.066406 175.710938 166.128906 174.707031 167.191406 C 144.757812 198.859375 117.933594 227.929688 95.175781 252.972656 L 96.050781 253.832031 L 96.664062 254.4375 L 97.296875 255 L 98.710938 256.273438 C 98.957031 256.488281 99.214844 256.695312 99.46875 256.902344 C 99.675781 257.066406 99.882812 257.234375 100.085938 257.402344 L 101.089844 258.226562 L 101.359375 258.429688 C 101.722656 258.691406 102.078125 258.960938 102.4375 259.230469 C 103.0625 259.703125 103.65625 260.152344 104.226562 260.515625 L 104.339844 260.59375 C 104.796875 260.90625 105.257812 261.210938 105.71875 261.511719 L 106.707031 262.15625 C 138.410156 232.914062 212.519531 162.289062 213.359375 161.367188 C 213.46875 161.304688 213.308594 161.238281 213.285156 161.175781 L 213.121094 160.980469 L 212.792969 160.59375 L 212.128906 159.816406 L 210.808594 158.257812 C 209.050781 156.195312 207.28125 154.125 205.515625 152.046875 L 204.1875 150.492188 C 203.964844 150.238281 203.753906 149.972656 203.511719 149.722656 L 202.777344 148.96875 C 201.792969 147.960938 200.808594 146.953125 199.820312 145.945312 L 198.335938 144.425781 C 197.828125 143.921875 197.292969 143.4375 196.769531 142.945312 C 196.226562 142.453125 195.636719 141.972656 195.074219 141.484375 L 193.765625 140.371094 C 182.898438 131.207031 169.386719 124.570312 154.78125 121.527344 C 147.480469 120.003906 139.9375 119.382812 132.363281 119.703125 C 124.789062 120.070312 117.15625 121.34375 109.757812 123.625 C 107.921875 124.242188 106.0625 124.800781 104.261719 125.535156 C 103.359375 125.890625 102.449219 126.230469 101.550781 126.605469 C 100.660156 127 99.769531 127.394531 98.878906 127.792969 C 98.433594 127.996094 97.988281 128.1875 97.546875 128.398438 L 96.242188 129.054688 C 95.371094 129.5 94.496094 129.933594 93.628906 130.390625 C 92.777344 130.875 91.929688 131.359375 91.074219 131.84375 C 90.652344 132.089844 90.222656 132.324219 89.804688 132.578125 L 88.5625 133.363281 C 87.734375 133.890625 86.902344 134.417969 86.082031 134.957031 C 85.277344 135.523438 84.476562 136.089844 83.671875 136.65625 C 83.269531 136.941406 82.863281 137.222656 82.472656 137.519531 L 81.304688 138.425781 C 80.53125 139.035156 79.746094 139.636719 78.984375 140.257812 L 76.738281 142.195312 C 76.367188 142.523438 75.984375 142.835938 75.625 143.179688 L 74.550781 144.195312 C 73.835938 144.886719 73.105469 145.554688 72.410156 146.261719 L 70.351562 148.414062 C 69.65625 149.125 69.015625 149.882812 68.367188 150.632812 C 67.722656 151.386719 67.054688 152.121094 66.441406 152.894531 C 65.21875 154.457031 63.96875 155.992188 62.855469 157.625 C 60.539062 160.824219 58.515625 164.214844 56.648438 167.667969 C 53.007812 174.617188 50.199219 181.972656 48.503906 189.53125 C 48.296875 190.476562 48.085938 191.417969 47.878906 192.359375 C 47.714844 193.3125 47.550781 194.261719 47.386719 195.210938 L 47.144531 196.636719 C 47.074219 197.113281 47.023438 197.589844 46.964844 198.066406 C 46.851562 199.019531 46.738281 199.972656 46.625 200.921875 C 46.519531 201.875 46.480469 202.832031 46.40625 203.785156 L 46.3125 205.214844 C 46.277344 205.6875 46.25 206.164062 46.25 206.640625 C 46.234375 207.59375 46.21875 208.546875 46.203125 209.496094 C 46.199219 209.96875 46.179688 210.441406 46.191406 210.917969 L 46.238281 212.339844 C 46.464844 219.917969 47.574219 227.46875 49.730469 234.664062 C 50.003906 235.5625 50.277344 236.460938 50.546875 237.355469 C 50.847656 238.242188 51.171875 239.121094 51.488281 239.996094 C 52.085938 241.769531 52.851562 243.46875 53.5625 245.183594 C 53.738281 245.613281 53.933594 246.035156 54.136719 246.449219 L 54.738281 247.707031 L 55.339844 248.953125 C 55.539062 249.371094 55.738281 249.789062 55.964844 250.1875 C 56.855469 251.808594 57.695312 253.445312 58.679688 254.992188 C 59.160156 255.773438 59.628906 256.558594 60.121094 257.324219 C 60.632812 258.082031 61.144531 258.835938 61.65625 259.585938 L 62.429688 260.710938 L 63.246094 261.800781 C 63.792969 262.519531 64.339844 263.242188 64.882812 263.960938 C 65.445312 264.667969 66.03125 265.351562 66.605469 266.042969 C 67.1875 266.730469 67.746094 267.433594 68.363281 268.082031 C 69.574219 269.402344 70.769531 270.726562 72.054688 271.953125 C 72.691406 272.574219 73.3125 273.207031 73.960938 273.808594 C 74.398438 274.199219 74.835938 274.59375 75.277344 274.988281 C 75.492188 275.1875 75.714844 275.378906 75.929688 275.578125 L 76.917969 276.457031 L 77.933594 277.289062 C 78.613281 277.84375 79.292969 278.398438 79.972656 278.949219 C 80.65625 279.492188 81.367188 279.996094 82.0625 280.519531 L 83.632812 281.679688 L 84.171875 282.042969 C 84.289062 282.121094 84.402344 282.199219 84.515625 282.273438 C 85.839844 283.160156 87.140625 284.074219 88.503906 284.871094 C 94.359375 288.460938 100.488281 291.386719 106.75 293.589844 C 113.019531 295.785156 119.394531 297.308594 125.742188 298.203125 C 126.535156 298.308594 127.328125 298.4375 128.121094 298.519531 C 128.914062 298.597656 129.707031 298.675781 130.496094 298.753906 C 132.074219 298.929688 133.65625 298.992188 135.226562 299.074219 C 136.808594 299.179688 138.335938 299.160156 139.875 299.183594 L 141.027344 299.191406 L 142.179688 299.164062 C 142.945312 299.144531 143.707031 299.121094 144.472656 299.101562 C 150.574219 298.867188 156.582031 298.148438 162.378906 296.941406 C 168.175781 295.742188 173.765625 294.082031 179.074219 292.0625 C 189.707031 288.015625 199.171875 282.527344 207.433594 276.414062 C 215.703125 270.292969 222.808594 263.5625 229 256.75 C 235.195312 249.925781 240.492188 243.011719 245.136719 236.277344 C 249.753906 229.527344 253.738281 222.960938 257.1875 216.703125 C 264.097656 204.183594 269.039062 192.976562 272.757812 183.730469 C 276.464844 174.472656 278.933594 167.160156 280.550781 162.1875 C 281.359375 159.703125 281.941406 157.796875 282.332031 156.519531 C 282.71875 155.234375 282.917969 154.582031 282.917969 154.582031 C 282.917969 154.582031 282.617188 155.199219 282.042969 156.40625 " fill-opacity="1" fill-rule="nonzero"/><g clip-path="url(#67111c3db2)"><path fill="#ffffff" d="M 83.632812 281.679688 L 82.0625 280.519531 C 81.367188 279.996094 80.65625 279.492188 79.972656 278.949219 C 79.292969 278.398438 78.613281 277.84375 77.933594 277.289062 L 76.917969 276.457031 L 75.929688 275.578125 C 75.714844 275.378906 75.492188 275.1875 75.277344 274.988281 C 36.78125 317.804688 14.21875 344.257812 14.21875 344.257812 C 14.21875 344.257812 41.097656 321.332031 84.515625 282.273438 C 84.402344 282.199219 84.289062 282.121094 84.171875 282.042969 L 83.632812 281.679688 " fill-opacity="1" fill-rule="nonzero"/></g><g clip-path="url(#c3235789f1)"><path fill="#ffffff" d="M 296.652344 118.9375 L 257.542969 145.695312 L 285.8125 147.617188 L 308.289062 164.878906 L 296.652344 118.9375 " fill-opacity="1" fill-rule="nonzero"/></g></svg>