<svg xmlns="http://www.w3.org/2000/svg" xmlns:xlink="http://www.w3.org/1999/xlink" width="500" zoomAndPan="magnify" viewBox="0 0 375 374.999991" height="500" preserveAspectRatio="xMidYMid meet" version="1.0"><defs><g/><clipPath id="398c067e86"><path d="M 50.933594 74 L 331.433594 74 L 331.433594 295.324219 L 50.933594 295.324219 Z M 50.933594 74 " clip-rule="nonzero"/></clipPath><clipPath id="ecdc3a2be7"><path d="M 62 8.074219 L 278 8.074219 L 278 71 L 62 71 Z M 62 8.074219 " clip-rule="nonzero"/></clipPath><clipPath id="11d11b4d4c"><path d="M 76 96.238281 L 269 96.238281 L 269 243 L 76 243 Z M 76 96.238281 " clip-rule="nonzero"/></clipPath><clipPath id="703b18c0ae"><path d="M 50.933594 222 L 108 222 L 108 278.488281 L 50.933594 278.488281 Z M 50.933594 222 " clip-rule="nonzero"/></clipPath><clipPath id="ea71c76773"><path d="M 247 96.238281 L 288.683594 96.238281 L 288.683594 134 L 247 134 Z M 247 96.238281 " clip-rule="nonzero"/></clipPath></defs><rect x="-37.5" width="450" fill="#ffffff" y="-37.499999" height="449.999989" fill-opacity="1"/><rect x="-37.5" width="450" fill="#ffffff" y="-37.499999" height="449.999989" fill-opacity="1"/><g clip-path="url(#398c067e86)"><path fill="#3b82f6" d="M 291.332031 74.925781 L 91 74.925781 C 66.179688 74.925781 50.933594 98.265625 50.933594 114.992188 L 50.933594 257.789062 C 50.933594 278.464844 67.761719 295.292969 88.4375 295.292969 L 293.898438 295.292969 C 314.570312 295.292969 331.398438 278.464844 331.398438 257.789062 L 331.398438 113.964844 C 331.398438 93.539062 312.308594 74.925781 291.332031 74.925781 Z M 281.332031 201.804688 C 272.109375 201.804688 264.621094 194.339844 264.621094 185.117188 C 264.621094 175.894531 272.109375 168.414062 281.332031 168.414062 C 290.527344 168.414062 298.011719 175.894531 298.011719 185.117188 C 298.011719 194.339844 290.527344 201.804688 281.332031 201.804688 Z M 281.332031 201.804688 " fill-opacity="1" fill-rule="nonzero"/></g><g clip-path="url(#ecdc3a2be7)"><path fill="#3b82f6" d="M 91 61.570312 L 277.976562 61.570312 L 277.976562 39.253906 C 277.976562 28.449219 277.976562 8.332031 256.140625 8.332031 C 251.195312 8.332031 245.171875 9.3125 237.199219 11.414062 C 217.105469 16.710938 99.394531 49.34375 97.640625 49.859375 C 80.15625 56.445312 69.09375 62.925781 62.160156 70.535156 C 70.289062 65.03125 80.050781 61.570312 91 61.570312 Z M 91 61.570312 " fill-opacity="1" fill-rule="nonzero"/></g><g clip-path="url(#11d11b4d4c)"><path fill="#ffffff" d="M 267.671875 126.5625 C 267.203125 127.535156 266.507812 128.988281 265.570312 130.875 C 263.699219 134.65625 260.898438 140.207031 256.992188 147.152344 C 253.078125 154.089844 248.054688 162.441406 241.542969 171.5625 C 238.292969 176.121094 234.636719 180.847656 230.550781 185.628906 C 226.449219 190.394531 221.898438 195.203125 216.800781 199.8125 C 211.707031 204.417969 206.058594 208.820312 199.816406 212.632812 C 193.578125 216.441406 186.734375 219.640625 179.398438 221.789062 C 172.066406 223.9375 164.253906 225.027344 156.207031 224.761719 C 155.703125 224.746094 155.203125 224.722656 154.699219 224.703125 L 153.941406 224.671875 L 153.183594 224.613281 C 152.175781 224.527344 151.144531 224.480469 150.160156 224.34375 C 149.167969 224.222656 148.167969 224.128906 147.179688 223.945312 C 146.683594 223.867188 146.1875 223.785156 145.691406 223.707031 C 145.195312 223.621094 144.703125 223.503906 144.207031 223.40625 C 140.257812 222.597656 136.351562 221.410156 132.574219 219.84375 C 129.234375 218.449219 126.011719 216.734375 122.953125 214.742188 C 122.554688 214.480469 122.15625 214.21875 121.765625 213.949219 C 120.894531 213.390625 120.09375 212.738281 119.253906 212.128906 L 118.941406 211.898438 L 118.644531 211.648438 L 118.042969 211.15625 C 117.644531 210.824219 117.234375 210.507812 116.84375 210.167969 C 116.460938 209.820312 116.074219 209.476562 115.6875 209.128906 L 115.109375 208.613281 L 114.554688 208.066406 C 114.351562 207.867188 114.148438 207.667969 113.949219 207.46875 C 113.78125 207.304688 113.613281 207.140625 113.441406 206.972656 C 113.078125 206.605469 112.734375 206.214844 112.378906 205.835938 C 111.652344 205.089844 111 204.28125 110.328125 203.488281 C 109.980469 203.101562 109.679688 202.675781 109.359375 202.265625 C 109.046875 201.851562 108.71875 201.445312 108.414062 201.023438 C 108.117188 200.597656 107.820312 200.171875 107.523438 199.742188 L 107.078125 199.101562 L 106.664062 198.4375 C 106.386719 197.996094 106.109375 197.554688 105.832031 197.113281 C 105.570312 196.660156 105.324219 196.199219 105.066406 195.75 C 104.53125 194.851562 104.101562 193.898438 103.625 192.964844 C 103.5 192.734375 103.398438 192.496094 103.296875 192.253906 L 102.664062 190.816406 C 102.558594 190.578125 102.453125 190.339844 102.367188 190.089844 C 102.007812 189.109375 101.59375 188.140625 101.296875 187.128906 C 101.140625 186.628906 100.964844 186.132812 100.8125 185.628906 C 100.679688 185.121094 100.542969 184.609375 100.40625 184.101562 C 99.3125 180.023438 98.8125 175.757812 98.78125 171.429688 L 98.769531 170.617188 C 98.765625 170.347656 98.789062 170.078125 98.796875 169.804688 C 98.816406 169.261719 98.835938 168.71875 98.855469 168.175781 C 98.859375 167.90625 98.882812 167.632812 98.910156 167.363281 L 98.984375 166.550781 C 99.039062 166.011719 99.0625 165.464844 99.136719 164.929688 C 99.210938 164.390625 99.289062 163.851562 99.363281 163.3125 C 99.402344 163.042969 99.429688 162.769531 99.476562 162.503906 L 99.632812 161.703125 C 99.734375 161.164062 99.832031 160.628906 99.933594 160.09375 C 100.0625 159.566406 100.191406 159.03125 100.320312 158.503906 C 101.332031 154.253906 102.976562 150.140625 105.054688 146.234375 C 106.128906 144.304688 107.269531 142.394531 108.589844 140.597656 C 109.214844 139.675781 109.933594 138.820312 110.621094 137.9375 C 110.960938 137.492188 111.351562 137.085938 111.710938 136.660156 C 112.078125 136.238281 112.433594 135.804688 112.832031 135.410156 L 113.992188 134.1875 C 114.382812 133.789062 114.800781 133.417969 115.199219 133.027344 L 115.804688 132.445312 C 116.003906 132.25 116.222656 132.078125 116.433594 131.890625 L 117.695312 130.792969 C 118.125 130.4375 118.570312 130.097656 119.003906 129.753906 L 119.65625 129.234375 C 119.875 129.0625 120.109375 128.910156 120.332031 128.746094 L 121.683594 127.773438 L 123.078125 126.867188 L 123.773438 126.414062 C 124.007812 126.269531 124.25 126.136719 124.488281 125.996094 L 125.917969 125.160156 L 127.386719 124.398438 L 128.117188 124.015625 C 128.363281 123.890625 128.613281 123.785156 128.863281 123.667969 L 130.359375 122.976562 C 130.863281 122.757812 131.375 122.566406 131.882812 122.355469 C 132.886719 121.917969 133.9375 121.605469 134.960938 121.230469 C 139.117188 119.878906 143.410156 119.074219 147.730469 118.757812 C 152.054688 118.476562 156.386719 118.710938 160.578125 119.457031 C 164.773438 120.195312 168.84375 121.4375 172.691406 123.132812 C 173.183594 123.320312 173.648438 123.566406 174.117188 123.792969 C 174.59375 124.023438 175.0625 124.253906 175.535156 124.480469 C 176.007812 124.710938 176.453125 124.984375 176.914062 125.234375 C 177.371094 125.488281 177.828125 125.738281 178.285156 125.992188 C 178.726562 126.269531 179.167969 126.550781 179.609375 126.828125 L 180.273438 127.242188 C 180.496094 127.378906 180.714844 127.515625 180.925781 127.671875 C 181.351562 127.972656 181.777344 128.273438 182.199219 128.570312 C 182.625 128.871094 183.058594 129.160156 183.457031 129.492188 L 183.761719 129.734375 C 183.835938 129.792969 183.808594 129.769531 183.816406 129.773438 L 183.828125 129.773438 C 183.84375 129.777344 183.851562 129.773438 183.875 129.78125 C 183.929688 129.8125 183.984375 129.84375 184.039062 129.875 C 184.152344 129.945312 184.277344 130.015625 184.394531 130.101562 C 184.519531 130.183594 184.648438 130.273438 184.777344 130.378906 C 184.839844 130.429688 184.914062 130.480469 184.972656 130.535156 L 184.875 130.691406 C 184.746094 130.910156 184.589844 131.15625 184.40625 131.421875 L 184.265625 131.632812 L 184.246094 131.660156 C 184.234375 131.675781 184.257812 131.65625 184.183594 131.730469 L 183.875 132.058594 L 183.261719 132.703125 C 182.445312 133.570312 181.628906 134.429688 180.816406 135.289062 C 156.578125 160.914062 134.875 184.441406 116.457031 204.707031 L 117.167969 205.398438 L 117.660156 205.890625 L 118.171875 206.34375 L 119.320312 207.375 C 119.519531 207.550781 119.726562 207.714844 119.933594 207.882812 C 120.097656 208.019531 120.265625 208.152344 120.429688 208.289062 L 121.242188 208.957031 L 121.460938 209.121094 C 121.753906 209.332031 122.042969 209.550781 122.332031 209.769531 C 122.839844 210.152344 123.320312 210.515625 123.78125 210.808594 L 123.871094 210.871094 C 124.242188 211.125 124.613281 211.371094 124.988281 211.617188 L 125.785156 212.136719 C 151.441406 188.472656 211.414062 131.324219 212.09375 130.574219 C 212.179688 130.527344 212.054688 130.472656 212.035156 130.421875 L 211.902344 130.261719 L 211.632812 129.949219 L 211.097656 129.320312 L 210.03125 128.0625 C 208.605469 126.390625 207.175781 124.714844 205.746094 123.03125 L 204.671875 121.777344 C 204.488281 121.570312 204.320312 121.355469 204.125 121.152344 L 203.53125 120.542969 C 202.734375 119.726562 201.9375 118.910156 201.140625 118.09375 L 199.9375 116.863281 C 199.527344 116.457031 199.09375 116.066406 198.671875 115.667969 C 198.230469 115.269531 197.753906 114.878906 197.296875 114.484375 L 196.238281 113.585938 C 187.445312 106.171875 176.511719 100.796875 164.691406 98.335938 C 158.785156 97.101562 152.679688 96.601562 146.550781 96.859375 C 140.421875 97.15625 134.242188 98.1875 128.253906 100.035156 C 126.773438 100.53125 125.265625 100.984375 123.8125 101.582031 C 123.078125 101.867188 122.339844 102.140625 121.613281 102.445312 C 120.894531 102.765625 120.175781 103.085938 119.453125 103.40625 C 119.09375 103.570312 118.730469 103.722656 118.375 103.894531 L 117.320312 104.429688 C 116.613281 104.785156 115.90625 105.140625 115.207031 105.507812 C 114.515625 105.902344 113.828125 106.292969 113.140625 106.683594 C 112.796875 106.882812 112.449219 107.074219 112.109375 107.277344 L 111.105469 107.914062 C 110.433594 108.34375 109.761719 108.765625 109.097656 109.203125 C 108.445312 109.660156 107.796875 110.121094 107.144531 110.578125 C 106.824219 110.808594 106.492188 111.035156 106.175781 111.277344 L 105.234375 112.007812 C 104.605469 112.503906 103.972656 112.988281 103.351562 113.496094 L 101.535156 115.0625 C 101.238281 115.328125 100.925781 115.578125 100.636719 115.855469 L 99.765625 116.679688 C 99.1875 117.238281 98.59375 117.78125 98.03125 118.351562 L 96.371094 120.09375 C 95.804688 120.667969 95.289062 121.28125 94.761719 121.886719 C 94.242188 122.5 93.699219 123.09375 93.203125 123.71875 C 92.214844 124.984375 91.203125 126.226562 90.304688 127.546875 C 88.425781 130.136719 86.789062 132.878906 85.28125 135.671875 C 82.332031 141.300781 80.0625 147.25 78.6875 153.367188 C 78.519531 154.128906 78.351562 154.894531 78.183594 155.65625 C 78.050781 156.425781 77.917969 157.195312 77.785156 157.964844 L 77.589844 159.117188 C 77.53125 159.5 77.492188 159.886719 77.441406 160.273438 C 77.351562 161.042969 77.261719 161.816406 77.167969 162.585938 C 77.082031 163.355469 77.050781 164.132812 76.992188 164.902344 L 76.914062 166.058594 C 76.886719 166.441406 76.867188 166.828125 76.863281 167.210938 C 76.851562 167.984375 76.839844 168.753906 76.824219 169.519531 C 76.824219 169.90625 76.808594 170.289062 76.816406 170.671875 L 76.855469 171.824219 C 77.039062 177.957031 77.9375 184.066406 79.679688 189.890625 C 79.902344 190.617188 80.121094 191.34375 80.34375 192.066406 C 80.582031 192.785156 80.847656 193.496094 81.101562 194.207031 C 81.589844 195.636719 82.207031 197.015625 82.78125 198.402344 C 82.921875 198.75 83.082031 199.089844 83.246094 199.425781 L 83.734375 200.441406 L 84.21875 201.453125 C 84.382812 201.792969 84.542969 202.128906 84.726562 202.453125 C 85.445312 203.761719 86.125 205.085938 86.921875 206.335938 C 87.3125 206.972656 87.691406 207.605469 88.089844 208.226562 C 88.503906 208.839844 88.917969 209.449219 89.332031 210.058594 L 89.957031 210.96875 L 90.617188 211.847656 C 91.0625 212.433594 91.503906 213.015625 91.945312 213.597656 C 92.398438 214.167969 92.875 214.722656 93.335938 215.28125 C 93.808594 215.839844 94.261719 216.40625 94.761719 216.929688 C 95.742188 218 96.707031 219.070312 97.746094 220.066406 C 98.261719 220.566406 98.761719 221.082031 99.289062 221.5625 C 99.644531 221.882812 100 222.203125 100.351562 222.519531 C 100.53125 222.679688 100.707031 222.835938 100.882812 222.996094 L 101.679688 223.707031 L 102.503906 224.382812 C 103.054688 224.832031 103.605469 225.277344 104.152344 225.726562 C 104.707031 226.164062 105.28125 226.574219 105.84375 226.996094 L 106.691406 227.621094 L 107.117188 227.9375 L 107.550781 228.230469 C 107.644531 228.292969 107.738281 228.355469 107.832031 228.417969 C 108.902344 229.132812 109.953125 229.871094 111.058594 230.515625 C 115.792969 233.425781 120.757812 235.789062 125.824219 237.574219 C 130.894531 239.347656 136.054688 240.582031 141.191406 241.304688 C 141.835938 241.390625 142.472656 241.496094 143.117188 241.5625 C 143.757812 241.625 144.398438 241.6875 145.039062 241.75 C 146.316406 241.894531 147.597656 241.945312 148.867188 242.011719 C 150.148438 242.097656 151.382812 242.078125 152.628906 242.097656 L 153.5625 242.105469 L 154.492188 242.085938 C 155.113281 242.066406 155.730469 242.050781 156.347656 242.035156 C 161.289062 241.84375 166.148438 241.261719 170.839844 240.285156 C 175.527344 239.316406 180.054688 237.972656 184.351562 236.335938 C 192.953125 233.0625 200.613281 228.621094 207.300781 223.671875 C 213.988281 218.722656 219.742188 213.273438 224.75 207.761719 C 229.761719 202.242188 234.050781 196.644531 237.808594 191.195312 C 241.542969 185.730469 244.769531 180.421875 247.5625 175.355469 C 253.152344 165.226562 257.152344 156.15625 260.160156 148.671875 C 263.160156 141.179688 265.160156 135.265625 266.46875 131.238281 C 267.121094 129.226562 267.59375 127.6875 267.910156 126.652344 C 268.21875 125.613281 268.378906 125.085938 268.378906 125.085938 C 268.378906 125.085938 268.140625 125.585938 267.671875 126.5625 " fill-opacity="1" fill-rule="nonzero"/></g><g clip-path="url(#703b18c0ae)"><path fill="#ffffff" d="M 107.117188 227.9375 L 106.691406 227.621094 L 105.84375 226.996094 C 105.28125 226.574219 104.707031 226.164062 104.152344 225.726562 C 103.605469 225.277344 103.054688 224.832031 102.503906 224.382812 L 101.679688 223.707031 L 100.882812 222.996094 C 100.707031 222.835938 100.53125 222.679688 100.351562 222.519531 C 69.199219 257.167969 50.941406 278.574219 50.941406 278.574219 C 50.941406 278.574219 72.695312 260.023438 107.832031 228.417969 C 107.738281 228.355469 107.644531 228.292969 107.550781 228.230469 L 107.117188 227.9375 " fill-opacity="1" fill-rule="nonzero"/></g><g clip-path="url(#ea71c76773)"><path fill="#ffffff" d="M 279.496094 96.242188 L 247.847656 117.894531 L 270.726562 119.449219 L 288.914062 133.417969 L 279.496094 96.242188 " fill-opacity="1" fill-rule="nonzero"/></g><g fill="#3b82f6" fill-opacity="1"><g transform="translate(31.8786, 351.624448)"><g><path d="M 25.546875 -39.625 L 25.546875 -31.703125 L 11.90625 -31.703125 L 11.90625 -23.828125 L 24.96875 -23.828125 L 24.96875 -15.890625 L 11.90625 -15.890625 L 11.90625 -7.921875 L 25.546875 -7.921875 L 25.546875 0 L 2.875 0 L 2.875 -39.625 Z M 25.546875 -39.625 "/></g></g></g><g fill="#3b82f6" fill-opacity="1"><g transform="translate(59.730978, 351.624448)"><g><path d="M 31.40625 0 L 21.140625 0 L 15.703125 -6.96875 L 10.28125 0 L 0 0 L 10.515625 -12.875 L 1.484375 -24.640625 L 11.4375 -24.640625 L 15.703125 -18.921875 L 19.984375 -24.640625 L 29.921875 -24.640625 L 20.890625 -12.875 Z M 31.40625 0 "/></g></g></g><g fill="#3b82f6" fill-opacity="1"><g transform="translate(91.136922, 351.624448)"><g><path d="M 28.234375 -21.578125 C 30.546875 -19.066406 31.703125 -15.988281 31.703125 -12.34375 C 31.703125 -8.695312 30.546875 -5.609375 28.234375 -3.078125 C 25.929688 -0.546875 23.003906 0.71875 19.453125 0.71875 C 16.179688 0.71875 13.492188 -0.304688 11.390625 -2.359375 L 11.390625 12.484375 L 2.875 12.484375 L 2.875 -24.640625 L 11.28125 -24.640625 L 11.28125 -21.859375 L 11.390625 -21.859375 C 13.492188 -24.191406 16.179688 -25.359375 19.453125 -25.359375 C 23.003906 -25.359375 25.929688 -24.097656 28.234375 -21.578125 Z M 21.015625 -8.15625 C 22.117188 -9.25 22.671875 -10.644531 22.671875 -12.34375 C 22.671875 -14.039062 22.140625 -15.425781 21.078125 -16.5 C 20.023438 -17.570312 18.632812 -18.109375 16.90625 -18.109375 C 15.238281 -18.109375 13.867188 -17.5625 12.796875 -16.46875 C 11.722656 -15.382812 11.1875 -14.007812 11.1875 -12.34375 C 11.1875 -10.644531 11.738281 -9.25 12.84375 -8.15625 C 13.945312 -7.070312 15.300781 -6.53125 16.90625 -6.53125 C 18.539062 -6.53125 19.910156 -7.070312 21.015625 -8.15625 Z M 21.015625 -8.15625 "/></g></g></g><g fill="#3b82f6" fill-opacity="1"><g transform="translate(123.935487, 351.624448)"><g><path d="M 27.8125 -11.140625 L 9.9375 -11.140625 C 9.9375 -9.410156 10.492188 -8.128906 11.609375 -7.296875 C 12.734375 -6.460938 13.957031 -6.046875 15.28125 -6.046875 C 16.65625 -6.046875 17.738281 -6.226562 18.53125 -6.59375 C 19.332031 -6.96875 20.25 -7.703125 21.28125 -8.796875 L 27.421875 -5.71875 C 24.859375 -1.425781 20.601562 0.71875 14.65625 0.71875 C 10.9375 0.71875 7.75 -0.550781 5.09375 -3.09375 C 2.4375 -5.644531 1.109375 -8.710938 1.109375 -12.296875 C 1.109375 -15.878906 2.4375 -18.953125 5.09375 -21.515625 C 7.75 -24.078125 10.9375 -25.359375 14.65625 -25.359375 C 18.5625 -25.359375 21.738281 -24.226562 24.1875 -21.96875 C 26.632812 -19.71875 27.859375 -16.492188 27.859375 -12.296875 C 27.859375 -11.722656 27.84375 -11.335938 27.8125 -11.140625 Z M 10.1875 -15.84375 L 19.546875 -15.84375 C 19.359375 -17.125 18.851562 -18.109375 18.03125 -18.796875 C 17.21875 -19.492188 16.171875 -19.84375 14.890625 -19.84375 C 13.484375 -19.84375 12.363281 -19.472656 11.53125 -18.734375 C 10.695312 -17.992188 10.25 -17.03125 10.1875 -15.84375 Z M 10.1875 -15.84375 "/></g></g></g><g fill="#3b82f6" fill-opacity="1"><g transform="translate(152.892346, 351.624448)"><g><path d="M 2.875 0 L 2.875 -24.640625 L 11.390625 -24.640625 L 11.390625 -22.046875 L 11.484375 -22.046875 C 13.691406 -24.253906 16.046875 -25.359375 18.546875 -25.359375 C 19.753906 -25.359375 20.957031 -25.195312 22.15625 -24.875 C 23.363281 -24.5625 24.519531 -24.066406 25.625 -23.390625 C 26.726562 -22.710938 27.625 -21.757812 28.3125 -20.53125 C 29 -19.300781 29.34375 -17.867188 29.34375 -16.234375 L 29.34375 0 L 20.84375 0 L 20.84375 -13.921875 C 20.84375 -15.203125 20.429688 -16.320312 19.609375 -17.28125 C 18.796875 -18.25 17.734375 -18.734375 16.421875 -18.734375 C 15.140625 -18.734375 13.976562 -18.234375 12.9375 -17.234375 C 11.90625 -16.242188 11.390625 -15.140625 11.390625 -13.921875 L 11.390625 0 Z M 2.875 0 "/></g></g></g><g fill="#3b82f6" fill-opacity="1"><g transform="translate(184.634445, 351.624448)"><g><path d="M 13.59375 -25.359375 C 15 -25.359375 16.390625 -25.195312 17.765625 -24.875 C 19.148438 -24.5625 20.175781 -24.242188 20.84375 -23.921875 L 21.859375 -23.4375 L 19.0625 -17.875 C 17.144531 -18.894531 15.320312 -19.40625 13.59375 -19.40625 C 12.632812 -19.40625 11.953125 -19.300781 11.546875 -19.09375 C 11.148438 -18.882812 10.953125 -18.492188 10.953125 -17.921875 C 10.953125 -17.785156 10.96875 -17.65625 11 -17.53125 C 11.03125 -17.40625 11.09375 -17.285156 11.1875 -17.171875 C 11.28125 -17.054688 11.367188 -16.957031 11.453125 -16.875 C 11.535156 -16.800781 11.671875 -16.710938 11.859375 -16.609375 C 12.054688 -16.515625 12.207031 -16.441406 12.3125 -16.390625 C 12.425781 -16.347656 12.609375 -16.28125 12.859375 -16.1875 C 13.117188 -16.09375 13.3125 -16.019531 13.4375 -15.96875 C 13.570312 -15.914062 13.789062 -15.84375 14.09375 -15.75 C 14.394531 -15.65625 14.628906 -15.59375 14.796875 -15.5625 C 15.785156 -15.269531 16.644531 -14.945312 17.375 -14.59375 C 18.113281 -14.25 18.890625 -13.769531 19.703125 -13.15625 C 20.523438 -12.550781 21.160156 -11.785156 21.609375 -10.859375 C 22.054688 -9.929688 22.28125 -8.875 22.28125 -7.6875 C 22.28125 -2.082031 18.390625 0.71875 10.609375 0.71875 C 8.847656 0.71875 7.175781 0.445312 5.59375 -0.09375 C 4.007812 -0.632812 2.863281 -1.179688 2.15625 -1.734375 L 1.109375 -2.59375 L 4.5625 -8.40625 C 4.820312 -8.175781 5.160156 -7.910156 5.578125 -7.609375 C 5.992188 -7.304688 6.742188 -6.890625 7.828125 -6.359375 C 8.921875 -5.835938 9.863281 -5.578125 10.65625 -5.578125 C 12.414062 -5.578125 13.296875 -6.164062 13.296875 -7.34375 C 13.296875 -7.894531 13.070312 -8.320312 12.625 -8.625 C 12.175781 -8.925781 11.414062 -9.269531 10.34375 -9.65625 C 9.269531 -10.039062 8.429688 -10.394531 7.828125 -10.71875 C 6.296875 -11.507812 5.078125 -12.410156 4.171875 -13.421875 C 3.273438 -14.429688 2.828125 -15.769531 2.828125 -17.4375 C 2.828125 -19.9375 3.796875 -21.878906 5.734375 -23.265625 C 7.671875 -24.660156 10.289062 -25.359375 13.59375 -25.359375 Z M 13.59375 -25.359375 "/></g></g></g><g fill="#3b82f6" fill-opacity="1"><g transform="translate(208.260947, 351.624448)"><g><path d="M 27.8125 -11.140625 L 9.9375 -11.140625 C 9.9375 -9.410156 10.492188 -8.128906 11.609375 -7.296875 C 12.734375 -6.460938 13.957031 -6.046875 15.28125 -6.046875 C 16.65625 -6.046875 17.738281 -6.226562 18.53125 -6.59375 C 19.332031 -6.96875 20.25 -7.703125 21.28125 -8.796875 L 27.421875 -5.71875 C 24.859375 -1.425781 20.601562 0.71875 14.65625 0.71875 C 10.9375 0.71875 7.75 -0.550781 5.09375 -3.09375 C 2.4375 -5.644531 1.109375 -8.710938 1.109375 -12.296875 C 1.109375 -15.878906 2.4375 -18.953125 5.09375 -21.515625 C 7.75 -24.078125 10.9375 -25.359375 14.65625 -25.359375 C 18.5625 -25.359375 21.738281 -24.226562 24.1875 -21.96875 C 26.632812 -19.71875 27.859375 -16.492188 27.859375 -12.296875 C 27.859375 -11.722656 27.84375 -11.335938 27.8125 -11.140625 Z M 10.1875 -15.84375 L 19.546875 -15.84375 C 19.359375 -17.125 18.851562 -18.109375 18.03125 -18.796875 C 17.21875 -19.492188 16.171875 -19.84375 14.890625 -19.84375 C 13.484375 -19.84375 12.363281 -19.472656 11.53125 -18.734375 C 10.695312 -17.992188 10.25 -17.03125 10.1875 -15.84375 Z M 10.1875 -15.84375 "/></g></g></g><g fill="#3b82f6" fill-opacity="1"><g transform="translate(237.217805, 351.624448)"><g><path d="M 25.546875 -39.625 L 25.546875 -31.703125 L 11.90625 -31.703125 L 11.90625 -23.828125 L 24.96875 -23.828125 L 24.96875 -15.890625 L 11.90625 -15.890625 L 11.90625 -7.921875 L 25.546875 -7.921875 L 25.546875 0 L 2.875 0 L 2.875 -39.625 Z M 25.546875 -39.625 "/></g></g></g><g fill="#3b82f6" fill-opacity="1"><g transform="translate(265.070183, 351.624448)"><g><path d="M 4.5625 -3.046875 C 2.257812 -5.566406 1.109375 -8.648438 1.109375 -12.296875 C 1.109375 -15.941406 2.257812 -19.03125 4.5625 -21.5625 C 6.863281 -24.09375 9.796875 -25.359375 13.359375 -25.359375 C 16.617188 -25.359375 19.304688 -24.332031 21.421875 -22.28125 L 21.421875 -24.640625 L 29.921875 -24.640625 L 29.921875 0 L 21.515625 0 L 21.515625 -2.78125 L 21.421875 -2.78125 C 19.304688 -0.445312 16.617188 0.71875 13.359375 0.71875 C 9.796875 0.71875 6.863281 -0.535156 4.5625 -3.046875 Z M 11.796875 -16.46875 C 10.691406 -15.382812 10.140625 -13.992188 10.140625 -12.296875 C 10.140625 -10.597656 10.664062 -9.210938 11.71875 -8.140625 C 12.769531 -7.066406 14.160156 -6.53125 15.890625 -6.53125 C 17.554688 -6.53125 18.925781 -7.070312 20 -8.15625 C 21.070312 -9.25 21.609375 -10.628906 21.609375 -12.296875 C 21.609375 -13.992188 21.054688 -15.382812 19.953125 -16.46875 C 18.847656 -17.5625 17.492188 -18.109375 15.890625 -18.109375 C 14.265625 -18.109375 12.898438 -17.5625 11.796875 -16.46875 Z M 11.796875 -16.46875 "/></g></g></g><g fill="#3b82f6" fill-opacity="1"><g transform="translate(297.868748, 351.624448)"><g><path d="M 13.59375 -25.359375 C 15 -25.359375 16.390625 -25.195312 17.765625 -24.875 C 19.148438 -24.5625 20.175781 -24.242188 20.84375 -23.921875 L 21.859375 -23.4375 L 19.0625 -17.875 C 17.144531 -18.894531 15.320312 -19.40625 13.59375 -19.40625 C 12.632812 -19.40625 11.953125 -19.300781 11.546875 -19.09375 C 11.148438 -18.882812 10.953125 -18.492188 10.953125 -17.921875 C 10.953125 -17.785156 10.96875 -17.65625 11 -17.53125 C 11.03125 -17.40625 11.09375 -17.285156 11.1875 -17.171875 C 11.28125 -17.054688 11.367188 -16.957031 11.453125 -16.875 C 11.535156 -16.800781 11.671875 -16.710938 11.859375 -16.609375 C 12.054688 -16.515625 12.207031 -16.441406 12.3125 -16.390625 C 12.425781 -16.347656 12.609375 -16.28125 12.859375 -16.1875 C 13.117188 -16.09375 13.3125 -16.019531 13.4375 -15.96875 C 13.570312 -15.914062 13.789062 -15.84375 14.09375 -15.75 C 14.394531 -15.65625 14.628906 -15.59375 14.796875 -15.5625 C 15.785156 -15.269531 16.644531 -14.945312 17.375 -14.59375 C 18.113281 -14.25 18.890625 -13.769531 19.703125 -13.15625 C 20.523438 -12.550781 21.160156 -11.785156 21.609375 -10.859375 C 22.054688 -9.929688 22.28125 -8.875 22.28125 -7.6875 C 22.28125 -2.082031 18.390625 0.71875 10.609375 0.71875 C 8.847656 0.71875 7.175781 0.445312 5.59375 -0.09375 C 4.007812 -0.632812 2.863281 -1.179688 2.15625 -1.734375 L 1.109375 -2.59375 L 4.5625 -8.40625 C 4.820312 -8.175781 5.160156 -7.910156 5.578125 -7.609375 C 5.992188 -7.304688 6.742188 -6.890625 7.828125 -6.359375 C 8.921875 -5.835938 9.863281 -5.578125 10.65625 -5.578125 C 12.414062 -5.578125 13.296875 -6.164062 13.296875 -7.34375 C 13.296875 -7.894531 13.070312 -8.320312 12.625 -8.625 C 12.175781 -8.925781 11.414062 -9.269531 10.34375 -9.65625 C 9.269531 -10.039062 8.429688 -10.394531 7.828125 -10.71875 C 6.296875 -11.507812 5.078125 -12.410156 4.171875 -13.421875 C 3.273438 -14.429688 2.828125 -15.769531 2.828125 -17.4375 C 2.828125 -19.9375 3.796875 -21.878906 5.734375 -23.265625 C 7.671875 -24.660156 10.289062 -25.359375 13.59375 -25.359375 Z M 13.59375 -25.359375 "/></g></g></g><g fill="#3b82f6" fill-opacity="1"><g transform="translate(321.495233, 351.624448)"><g><path d="M 27.8125 -11.140625 L 9.9375 -11.140625 C 9.9375 -9.410156 10.492188 -8.128906 11.609375 -7.296875 C 12.734375 -6.460938 13.957031 -6.046875 15.28125 -6.046875 C 16.65625 -6.046875 17.738281 -6.226562 18.53125 -6.59375 C 19.332031 -6.96875 20.25 -7.703125 21.28125 -8.796875 L 27.421875 -5.71875 C 24.859375 -1.425781 20.601562 0.71875 14.65625 0.71875 C 10.9375 0.71875 7.75 -0.550781 5.09375 -3.09375 C 2.4375 -5.644531 1.109375 -8.710938 1.109375 -12.296875 C 1.109375 -15.878906 2.4375 -18.953125 5.09375 -21.515625 C 7.75 -24.078125 10.9375 -25.359375 14.65625 -25.359375 C 18.5625 -25.359375 21.738281 -24.226562 24.1875 -21.96875 C 26.632812 -19.71875 27.859375 -16.492188 27.859375 -12.296875 C 27.859375 -11.722656 27.84375 -11.335938 27.8125 -11.140625 Z M 10.1875 -15.84375 L 19.546875 -15.84375 C 19.359375 -17.125 18.851562 -18.109375 18.03125 -18.796875 C 17.21875 -19.492188 16.171875 -19.84375 14.890625 -19.84375 C 13.484375 -19.84375 12.363281 -19.472656 11.53125 -18.734375 C 10.695312 -17.992188 10.25 -17.03125 10.1875 -15.84375 Z M 10.1875 -15.84375 "/></g></g></g></svg>