<svg xmlns="http://www.w3.org/2000/svg" xmlns:xlink="http://www.w3.org/1999/xlink" width="500" zoomAndPan="magnify" viewBox="0 0 375 374.999991" height="500" preserveAspectRatio="xMidYMid meet" version="1.0"><defs><clipPath id="cac8145ab1"><path d="M 21.085938 96 L 354 96 L 354 358 L 21.085938 358 Z M 21.085938 96 " clip-rule="nonzero"/></clipPath><clipPath id="91914ea350"><path d="M 34 17.039062 L 291 17.039062 L 291 92 L 34 92 Z M 34 17.039062 " clip-rule="nonzero"/></clipPath><clipPath id="d4a2823774"><path d="M 21.085938 271 L 89 271 L 89 338.410156 L 21.085938 338.410156 Z M 21.085938 271 " clip-rule="nonzero"/></clipPath><clipPath id="26fe2bd73f"><path d="M 254 121.660156 L 303.835938 121.660156 L 303.835938 166 L 254 166 Z M 254 121.660156 " clip-rule="nonzero"/></clipPath></defs><g clip-path="url(#cac8145ab1)"><path fill="#1e98d4" d="M 306.363281 96.367188 L 68.632812 96.367188 C 39.175781 96.367188 21.085938 124.0625 21.085938 143.914062 L 21.085938 313.371094 C 21.085938 337.902344 41.054688 357.871094 65.589844 357.871094 L 309.40625 357.871094 C 333.941406 357.871094 353.910156 337.902344 353.910156 313.371094 L 353.910156 142.695312 C 353.910156 118.453125 331.253906 96.367188 306.363281 96.367188 Z M 294.492188 246.929688 C 283.550781 246.929688 274.667969 238.070312 274.667969 227.128906 C 274.667969 216.183594 283.550781 207.308594 294.492188 207.308594 C 305.40625 207.308594 314.289062 216.183594 314.289062 227.128906 C 314.289062 238.070312 305.40625 246.929688 294.492188 246.929688 Z M 294.492188 246.929688 " fill-opacity="1" fill-rule="nonzero"/></g><g clip-path="url(#91914ea350)"><path fill="#1e98d4" d="M 68.632812 80.519531 L 290.515625 80.519531 L 290.515625 54.035156 C 290.515625 41.214844 290.515625 17.339844 264.601562 17.339844 C 258.730469 17.339844 251.582031 18.503906 242.121094 21 C 218.277344 27.285156 78.59375 66.007812 76.507812 66.621094 C 55.761719 74.433594 42.632812 82.128906 34.40625 91.152344 C 44.050781 84.625 55.636719 80.519531 68.632812 80.519531 Z M 68.632812 80.519531 " fill-opacity="1" fill-rule="nonzero"/></g><path fill="#ffffff" d="M 278.285156 157.640625 C 277.726562 158.796875 276.902344 160.519531 275.789062 162.761719 C 273.566406 167.246094 270.246094 173.835938 265.609375 182.078125 C 260.964844 190.308594 255.003906 200.21875 247.273438 211.042969 C 243.417969 216.449219 239.082031 222.0625 234.230469 227.734375 C 229.363281 233.390625 223.964844 239.097656 217.917969 244.566406 C 211.871094 250.03125 205.171875 255.253906 197.761719 259.777344 C 190.355469 264.296875 182.238281 268.09375 173.53125 270.640625 C 164.832031 273.191406 155.5625 274.484375 146.011719 274.171875 C 145.414062 274.148438 144.820312 274.125 144.21875 274.101562 L 143.320312 274.066406 L 142.421875 273.996094 C 141.226562 273.894531 140.003906 273.839844 138.835938 273.675781 C 137.65625 273.53125 136.472656 273.417969 135.296875 273.199219 C 134.710938 273.105469 134.121094 273.011719 133.53125 272.917969 C 132.945312 272.820312 132.359375 272.679688 131.773438 272.5625 C 127.085938 271.601562 122.449219 270.195312 117.96875 268.335938 C 114.003906 266.679688 110.179688 264.644531 106.550781 262.277344 C 106.078125 261.972656 105.605469 261.660156 105.140625 261.339844 C 104.109375 260.675781 103.15625 259.902344 102.164062 259.179688 L 101.792969 258.90625 L 100.726562 258.027344 C 100.253906 257.632812 99.765625 257.257812 99.304688 256.851562 C 98.847656 256.441406 98.390625 256.03125 97.933594 255.621094 L 97.242188 255.007812 L 96.585938 254.359375 C 96.34375 254.121094 96.105469 253.886719 95.867188 253.652344 C 95.667969 253.457031 95.464844 253.261719 95.265625 253.0625 C 94.832031 252.625 94.425781 252.160156 94.003906 251.714844 C 93.144531 250.828125 92.371094 249.867188 91.566406 248.925781 C 91.15625 248.46875 90.800781 247.964844 90.421875 247.476562 C 90.046875 246.984375 89.660156 246.503906 89.296875 246 C 88.945312 245.496094 88.59375 244.988281 88.242188 244.480469 L 87.710938 243.71875 L 87.222656 242.929688 C 86.894531 242.410156 86.566406 241.886719 86.234375 241.363281 C 85.921875 240.824219 85.632812 240.277344 85.324219 239.742188 C 84.6875 238.675781 84.183594 237.542969 83.617188 236.441406 C 83.46875 236.167969 83.347656 235.882812 83.222656 235.597656 L 82.851562 234.742188 L 82.476562 233.890625 C 82.347656 233.609375 82.226562 233.324219 82.121094 233.027344 C 81.695312 231.863281 81.203125 230.714844 80.855469 229.515625 C 80.664062 228.921875 80.460938 228.328125 80.28125 227.734375 C 80.117188 227.132812 79.957031 226.523438 79.792969 225.917969 C 78.496094 221.082031 77.90625 216.019531 77.867188 210.886719 L 77.851562 209.921875 C 77.847656 209.601562 77.875 209.277344 77.886719 208.957031 C 77.910156 208.3125 77.933594 207.667969 77.957031 207.023438 C 77.960938 206.699219 77.988281 206.378906 78.023438 206.058594 L 78.109375 205.097656 C 78.175781 204.453125 78.203125 203.808594 78.292969 203.167969 C 78.378906 202.53125 78.46875 201.890625 78.558594 201.25 C 78.605469 200.929688 78.636719 200.609375 78.695312 200.292969 L 78.878906 199.339844 C 78.996094 198.703125 79.117188 198.070312 79.234375 197.429688 C 79.386719 196.804688 79.539062 196.171875 79.691406 195.542969 C 80.898438 190.5 82.847656 185.621094 85.3125 180.988281 C 86.585938 178.695312 87.9375 176.429688 89.507812 174.296875 C 90.25 173.203125 91.105469 172.1875 91.914062 171.140625 C 92.324219 170.613281 92.78125 170.132812 93.210938 169.625 C 93.644531 169.125 94.070312 168.609375 94.542969 168.140625 L 95.917969 166.691406 C 96.378906 166.21875 96.875 165.777344 97.351562 165.3125 L 98.066406 164.621094 C 98.304688 164.390625 98.566406 164.1875 98.8125 163.964844 L 100.3125 162.660156 C 100.820312 162.242188 101.347656 161.839844 101.863281 161.429688 L 102.636719 160.8125 C 102.898438 160.609375 103.175781 160.425781 103.441406 160.234375 L 105.042969 159.078125 L 106.699219 158.003906 L 107.523438 157.464844 C 107.804688 157.296875 108.089844 157.136719 108.375 156.972656 L 110.070312 155.980469 L 111.8125 155.074219 L 112.675781 154.617188 C 112.96875 154.472656 113.269531 154.347656 113.566406 154.207031 L 115.339844 153.386719 C 115.9375 153.128906 116.546875 152.902344 117.148438 152.652344 C 118.339844 152.128906 119.585938 151.761719 120.800781 151.316406 C 125.730469 149.710938 130.828125 148.757812 135.953125 148.378906 C 141.085938 148.046875 146.222656 148.328125 151.199219 149.210938 C 156.175781 150.089844 161.007812 151.5625 165.574219 153.570312 C 166.15625 153.796875 166.707031 154.085938 167.265625 154.355469 C 167.828125 154.628906 168.386719 154.902344 168.945312 155.171875 C 169.507812 155.445312 170.035156 155.773438 170.582031 156.066406 C 171.128906 156.367188 171.667969 156.664062 172.210938 156.964844 C 172.734375 157.296875 173.257812 157.628906 173.78125 157.957031 L 174.570312 158.449219 C 174.832031 158.609375 175.09375 158.773438 175.34375 158.957031 C 175.847656 159.316406 176.351562 159.671875 176.855469 160.027344 C 177.359375 160.378906 177.875 160.722656 178.347656 161.121094 L 178.707031 161.40625 C 178.796875 161.476562 178.765625 161.449219 178.773438 161.453125 L 178.785156 161.453125 C 178.808594 161.457031 178.816406 161.453125 178.84375 161.464844 C 178.910156 161.5 178.972656 161.535156 179.039062 161.574219 C 179.175781 161.65625 179.320312 161.742188 179.460938 161.84375 C 179.609375 161.941406 179.761719 162.046875 179.914062 162.171875 C 179.988281 162.230469 180.078125 162.292969 180.148438 162.359375 L 180.03125 162.542969 C 179.875 162.800781 179.691406 163.089844 179.476562 163.410156 L 179.308594 163.660156 L 179.285156 163.691406 C 179.269531 163.707031 179.296875 163.6875 179.210938 163.773438 L 178.847656 164.164062 L 178.117188 164.929688 C 177.144531 165.957031 176.179688 166.976562 175.214844 167.996094 C 146.453125 198.40625 120.695312 226.324219 98.84375 250.371094 L 99.683594 251.195312 L 100.273438 251.773438 L 100.878906 252.316406 L 102.238281 253.539062 C 102.476562 253.746094 102.722656 253.945312 102.964844 254.140625 C 103.164062 254.300781 103.363281 254.460938 103.558594 254.625 L 104.519531 255.417969 L 104.78125 255.609375 C 105.128906 255.863281 105.472656 256.121094 105.8125 256.378906 C 106.417969 256.832031 106.984375 257.265625 107.53125 257.613281 L 107.644531 257.6875 C 108.082031 257.988281 108.523438 258.28125 108.96875 258.570312 L 109.914062 259.1875 C 140.355469 231.109375 211.523438 163.292969 212.328125 162.40625 C 212.433594 162.34375 212.28125 162.28125 212.257812 162.21875 L 212.101562 162.035156 L 211.785156 161.660156 L 211.148438 160.914062 L 209.878906 159.421875 C 208.191406 157.4375 206.496094 155.449219 204.796875 153.453125 L 203.523438 151.964844 C 203.308594 151.714844 203.105469 151.464844 202.871094 151.222656 L 202.167969 150.5 C 201.222656 149.53125 200.277344 148.5625 199.332031 147.59375 L 197.902344 146.136719 C 197.417969 145.652344 196.902344 145.1875 196.402344 144.714844 C 195.878906 144.242188 195.3125 143.78125 194.769531 143.3125 L 193.515625 142.242188 C 183.078125 133.445312 170.105469 127.070312 156.082031 124.144531 C 149.070312 122.683594 141.824219 122.089844 134.554688 122.394531 C 127.277344 122.75 119.949219 123.972656 112.84375 126.164062 C 111.082031 126.753906 109.296875 127.289062 107.570312 127.996094 C 106.699219 128.335938 105.824219 128.664062 104.960938 129.023438 C 104.109375 129.402344 103.253906 129.78125 102.398438 130.164062 C 101.972656 130.359375 101.542969 130.542969 101.121094 130.746094 L 99.863281 131.378906 C 99.027344 131.800781 98.1875 132.222656 97.355469 132.660156 C 96.539062 133.125 95.722656 133.585938 94.90625 134.050781 C 94.5 134.289062 94.085938 134.515625 93.683594 134.761719 L 92.488281 135.515625 C 91.695312 136.019531 90.898438 136.523438 90.109375 137.042969 C 89.335938 137.585938 88.566406 138.132812 87.792969 138.675781 C 87.410156 138.949219 87.019531 139.21875 86.640625 139.503906 L 85.523438 140.375 C 84.777344 140.960938 84.027344 141.535156 83.292969 142.136719 L 81.136719 143.996094 C 80.78125 144.308594 80.414062 144.609375 80.070312 144.9375 L 79.035156 145.917969 C 78.347656 146.578125 77.648438 147.222656 76.980469 147.898438 L 75.003906 149.964844 C 74.335938 150.648438 73.722656 151.375 73.097656 152.09375 C 72.480469 152.820312 71.835938 153.523438 71.25 154.269531 C 70.074219 155.769531 68.875 157.242188 67.808594 158.8125 C 65.578125 161.882812 63.636719 165.136719 61.847656 168.453125 C 58.347656 175.128906 55.652344 182.191406 54.023438 189.449219 C 53.824219 190.355469 53.625 191.261719 53.421875 192.167969 C 53.265625 193.082031 53.109375 193.992188 52.953125 194.902344 L 52.722656 196.273438 C 52.648438 196.730469 52.605469 197.1875 52.546875 197.644531 C 52.4375 198.558594 52.328125 199.476562 52.222656 200.390625 C 52.117188 201.304688 52.082031 202.222656 52.011719 203.136719 L 51.921875 204.507812 C 51.886719 204.964844 51.859375 205.421875 51.859375 205.878906 C 51.84375 206.792969 51.828125 207.707031 51.8125 208.621094 C 51.8125 209.078125 51.792969 209.53125 51.804688 209.984375 L 51.851562 211.355469 C 52.066406 218.628906 53.132812 225.882812 55.203125 232.789062 C 55.464844 233.652344 55.726562 234.515625 55.988281 235.371094 C 56.273438 236.226562 56.585938 237.066406 56.890625 237.910156 C 57.464844 239.609375 58.199219 241.246094 58.882812 242.890625 C 59.050781 243.304688 59.238281 243.707031 59.433594 244.105469 L 60.011719 245.3125 L 60.589844 246.511719 C 60.78125 246.914062 60.972656 247.3125 61.191406 247.695312 C 62.042969 249.25 62.847656 250.824219 63.796875 252.308594 C 64.257812 253.058594 64.707031 253.8125 65.179688 254.550781 C 65.671875 255.273438 66.164062 256 66.65625 256.722656 L 67.394531 257.800781 L 68.179688 258.847656 C 68.707031 259.539062 69.230469 260.234375 69.753906 260.921875 C 70.292969 261.601562 70.855469 262.257812 71.40625 262.921875 C 71.964844 263.582031 72.503906 264.257812 73.097656 264.878906 C 74.257812 266.144531 75.40625 267.417969 76.640625 268.597656 C 77.25 269.191406 77.847656 269.800781 78.472656 270.375 C 78.890625 270.753906 79.3125 271.132812 79.734375 271.511719 C 79.941406 271.703125 80.152344 271.886719 80.363281 272.078125 L 81.308594 272.921875 L 82.285156 273.722656 C 82.9375 274.253906 83.589844 274.785156 84.242188 275.316406 C 84.898438 275.835938 85.582031 276.320312 86.25 276.824219 L 87.253906 277.5625 L 87.757812 277.9375 L 88.273438 278.285156 C 88.386719 278.359375 88.496094 278.433594 88.605469 278.507812 C 89.875 279.359375 91.125 280.234375 92.433594 281 C 98.058594 284.449219 103.945312 287.257812 109.957031 289.375 C 115.976562 291.480469 122.101562 292.945312 128.195312 293.800781 C 128.957031 293.902344 129.714844 294.027344 130.476562 294.105469 C 131.238281 294.183594 132 294.253906 132.761719 294.332031 C 134.277344 294.503906 135.792969 294.5625 137.300781 294.640625 C 138.820312 294.742188 140.289062 294.722656 141.765625 294.746094 L 142.871094 294.753906 L 143.976562 294.726562 C 144.714844 294.707031 145.445312 294.6875 146.179688 294.667969 C 152.039062 294.441406 157.808594 293.75 163.375 292.589844 C 168.941406 291.441406 174.308594 289.847656 179.40625 287.90625 C 189.617188 284.019531 198.707031 278.75 206.640625 272.878906 C 214.578125 267.003906 221.40625 260.539062 227.347656 253.996094 C 233.296875 247.445312 238.386719 240.804688 242.84375 234.339844 C 247.277344 227.855469 251.101562 221.550781 254.417969 215.542969 C 261.054688 203.519531 265.796875 192.757812 269.371094 183.878906 C 272.925781 174.988281 275.300781 167.96875 276.851562 163.191406 C 277.628906 160.804688 278.1875 158.976562 278.5625 157.75 C 278.933594 156.515625 279.121094 155.886719 279.121094 155.886719 C 279.121094 155.886719 278.835938 156.484375 278.285156 157.640625 " fill-opacity="1" fill-rule="nonzero"/><g clip-path="url(#d4a2823774)"><path fill="#ffffff" d="M 87.757812 277.9375 L 87.253906 277.5625 L 86.25 276.824219 C 85.582031 276.320312 84.898438 275.835938 84.242188 275.316406 C 83.589844 274.785156 82.9375 274.253906 82.285156 273.722656 L 81.308594 272.921875 L 80.363281 272.078125 C 80.152344 271.886719 79.941406 271.703125 79.734375 271.511719 C 42.765625 312.625 21.101562 338.027344 21.101562 338.027344 C 21.101562 338.027344 46.914062 316.015625 88.605469 278.507812 C 88.496094 278.433594 88.386719 278.359375 88.273438 278.285156 L 87.757812 277.9375 " fill-opacity="1" fill-rule="nonzero"/></g><g clip-path="url(#26fe2bd73f)"><path fill="#ffffff" d="M 292.3125 121.664062 L 254.757812 147.355469 L 281.90625 149.199219 L 303.488281 165.777344 L 292.3125 121.664062 " fill-opacity="1" fill-rule="nonzero"/></g></svg>